<mxfile host="Electron" modified="2025-06-03T15:31:22.395Z" agent="Mozilla/5.0 (Windows NT 10.0; Win64; x64) AppleWebKit/537.36 (KHTML, like Gecko) draw.io/24.2.5 Chrome/120.0.6099.109 Electron/28.1.0 Safari/537.36" etag="k6kTEN77WYh_-Q-UjMy5" version="24.2.5" type="device" pages="3">
  <diagram name="1" id="CVSn5mxR9Ua3llEDAh_u">
    <mxGraphModel dx="1804" dy="657" grid="1" gridSize="10" guides="1" tooltips="1" connect="1" arrows="1" fold="1" page="1" pageScale="1" pageWidth="850" pageHeight="1100" math="0" shadow="0">
      <root>
        <mxCell id="x5pfj3FXUeSIFP_9i6a1-0" />
        <mxCell id="x5pfj3FXUeSIFP_9i6a1-1" parent="x5pfj3FXUeSIFP_9i6a1-0" />
        <mxCell id="x5pfj3FXUeSIFP_9i6a1-28" value="FILE *" style="swimlane;fontStyle=0;childLayout=stackLayout;horizontal=1;startSize=30;horizontalStack=0;resizeParent=1;resizeParentMax=0;resizeLast=0;collapsible=1;marginBottom=0;whiteSpace=wrap;html=1;swimlaneLine=1;strokeColor=none;fillColor=default;fontSize=14;fontFamily=Times New Roman;" parent="x5pfj3FXUeSIFP_9i6a1-1" vertex="1">
          <mxGeometry x="-100" y="470" width="70" height="50" as="geometry" />
        </mxCell>
        <mxCell id="x5pfj3FXUeSIFP_9i6a1-29" value="fs1" style="text;strokeColor=default;fillColor=none;align=center;verticalAlign=middle;spacingLeft=4;spacingRight=4;overflow=hidden;points=[[0,0.5],[1,0.5]];portConstraint=eastwest;rotatable=0;whiteSpace=wrap;html=1;fontSize=14;fontFamily=Times New Roman;" parent="x5pfj3FXUeSIFP_9i6a1-28" vertex="1">
          <mxGeometry y="30" width="70" height="20" as="geometry" />
        </mxCell>
        <mxCell id="x5pfj3FXUeSIFP_9i6a1-75" value="" style="endArrow=none;html=1;rounded=0;strokeWidth=2;fontSize=14;fontFamily=Times New Roman;" parent="x5pfj3FXUeSIFP_9i6a1-1" edge="1">
          <mxGeometry width="50" height="50" relative="1" as="geometry">
            <mxPoint x="220" y="440" as="sourcePoint" />
            <mxPoint x="220" y="880" as="targetPoint" />
            <Array as="points">
              <mxPoint x="220" y="660" />
            </Array>
          </mxGeometry>
        </mxCell>
        <mxCell id="x5pfj3FXUeSIFP_9i6a1-76" value="user mode" style="text;html=1;align=center;verticalAlign=middle;whiteSpace=wrap;rounded=0;fontSize=14;fontFamily=Times New Roman;" parent="x5pfj3FXUeSIFP_9i6a1-1" vertex="1">
          <mxGeometry x="130" y="850" width="80" height="30" as="geometry" />
        </mxCell>
        <mxCell id="x5pfj3FXUeSIFP_9i6a1-77" value="kernel mode" style="text;html=1;align=center;verticalAlign=middle;whiteSpace=wrap;rounded=0;fontSize=14;fontFamily=Times New Roman;" parent="x5pfj3FXUeSIFP_9i6a1-1" vertex="1">
          <mxGeometry x="230" y="850" width="80" height="30" as="geometry" />
        </mxCell>
        <mxCell id="GYHSR6qRm1gEe9oGfBOl-0" value="FILE *" style="swimlane;fontStyle=0;childLayout=stackLayout;horizontal=1;startSize=30;horizontalStack=0;resizeParent=1;resizeParentMax=0;resizeLast=0;collapsible=1;marginBottom=0;whiteSpace=wrap;html=1;swimlaneLine=1;strokeColor=none;fillColor=default;fontSize=14;fontFamily=Times New Roman;" parent="x5pfj3FXUeSIFP_9i6a1-1" vertex="1">
          <mxGeometry x="-100" y="645" width="70" height="50" as="geometry" />
        </mxCell>
        <mxCell id="GYHSR6qRm1gEe9oGfBOl-1" value="fs2" style="text;strokeColor=default;fillColor=none;align=center;verticalAlign=middle;spacingLeft=4;spacingRight=4;overflow=hidden;points=[[0,0.5],[1,0.5]];portConstraint=eastwest;rotatable=0;whiteSpace=wrap;html=1;fontSize=14;fontFamily=Times New Roman;" parent="GYHSR6qRm1gEe9oGfBOl-0" vertex="1">
          <mxGeometry y="30" width="70" height="20" as="geometry" />
        </mxCell>
        <mxCell id="GYHSR6qRm1gEe9oGfBOl-15" value="struct _IO_FILE" style="swimlane;fontStyle=0;childLayout=stackLayout;horizontal=1;startSize=30;horizontalStack=0;resizeParent=1;resizeParentMax=0;resizeLast=0;collapsible=1;marginBottom=0;whiteSpace=wrap;html=1;swimlaneLine=1;strokeColor=none;fillColor=default;fontSize=14;fontFamily=Times New Roman;" parent="x5pfj3FXUeSIFP_9i6a1-1" vertex="1">
          <mxGeometry x="-10" y="475" width="100" height="150" as="geometry" />
        </mxCell>
        <mxCell id="GYHSR6qRm1gEe9oGfBOl-16" value="..." style="text;strokeColor=default;fillColor=none;align=center;verticalAlign=middle;spacingLeft=4;spacingRight=4;overflow=hidden;points=[[0,0.5],[1,0.5]];portConstraint=eastwest;rotatable=0;whiteSpace=wrap;html=1;fontSize=14;fontFamily=Times New Roman;" parent="GYHSR6qRm1gEe9oGfBOl-15" vertex="1">
          <mxGeometry y="30" width="100" height="20" as="geometry" />
        </mxCell>
        <mxCell id="GYHSR6qRm1gEe9oGfBOl-17" value="_IO_read_base" style="text;strokeColor=default;fillColor=none;align=center;verticalAlign=middle;spacingLeft=4;spacingRight=4;overflow=hidden;points=[[0,0.5],[1,0.5]];portConstraint=eastwest;rotatable=0;whiteSpace=wrap;html=1;fontSize=14;fontFamily=Times New Roman;" parent="GYHSR6qRm1gEe9oGfBOl-15" vertex="1">
          <mxGeometry y="50" width="100" height="20" as="geometry" />
        </mxCell>
        <mxCell id="GYHSR6qRm1gEe9oGfBOl-18" value="_IO_read_ptr" style="text;strokeColor=default;fillColor=none;align=center;verticalAlign=middle;spacingLeft=4;spacingRight=4;overflow=hidden;points=[[0,0.5],[1,0.5]];portConstraint=eastwest;rotatable=0;whiteSpace=wrap;html=1;fontSize=14;fontFamily=Times New Roman;" parent="GYHSR6qRm1gEe9oGfBOl-15" vertex="1">
          <mxGeometry y="70" width="100" height="20" as="geometry" />
        </mxCell>
        <mxCell id="GYHSR6qRm1gEe9oGfBOl-19" value="_IO_read_end" style="text;strokeColor=default;fillColor=none;align=center;verticalAlign=middle;spacingLeft=4;spacingRight=4;overflow=hidden;points=[[0,0.5],[1,0.5]];portConstraint=eastwest;rotatable=0;whiteSpace=wrap;html=1;fontSize=14;fontFamily=Times New Roman;" parent="GYHSR6qRm1gEe9oGfBOl-15" vertex="1">
          <mxGeometry y="90" width="100" height="20" as="geometry" />
        </mxCell>
        <mxCell id="GYHSR6qRm1gEe9oGfBOl-20" value="_fileno" style="text;strokeColor=default;fillColor=none;align=center;verticalAlign=middle;spacingLeft=4;spacingRight=4;overflow=hidden;points=[[0,0.5],[1,0.5]];portConstraint=eastwest;rotatable=0;whiteSpace=wrap;html=1;fontSize=14;fontFamily=Times New Roman;" parent="GYHSR6qRm1gEe9oGfBOl-15" vertex="1">
          <mxGeometry y="110" width="100" height="20" as="geometry" />
        </mxCell>
        <mxCell id="GYHSR6qRm1gEe9oGfBOl-22" value="..." style="text;strokeColor=default;fillColor=none;align=center;verticalAlign=middle;spacingLeft=4;spacingRight=4;overflow=hidden;points=[[0,0.5],[1,0.5]];portConstraint=eastwest;rotatable=0;whiteSpace=wrap;html=1;fontSize=14;fontFamily=Times New Roman;" parent="GYHSR6qRm1gEe9oGfBOl-15" vertex="1">
          <mxGeometry y="130" width="100" height="20" as="geometry" />
        </mxCell>
        <mxCell id="GYHSR6qRm1gEe9oGfBOl-23" value="struct _IO_FILE" style="swimlane;fontStyle=0;childLayout=stackLayout;horizontal=1;startSize=30;horizontalStack=0;resizeParent=1;resizeParentMax=0;resizeLast=0;collapsible=1;marginBottom=0;whiteSpace=wrap;html=1;swimlaneLine=1;strokeColor=none;fillColor=default;fontSize=14;fontFamily=Times New Roman;" parent="x5pfj3FXUeSIFP_9i6a1-1" vertex="1">
          <mxGeometry x="-10" y="645" width="100" height="150" as="geometry" />
        </mxCell>
        <mxCell id="GYHSR6qRm1gEe9oGfBOl-24" value="..." style="text;strokeColor=default;fillColor=none;align=center;verticalAlign=middle;spacingLeft=4;spacingRight=4;overflow=hidden;points=[[0,0.5],[1,0.5]];portConstraint=eastwest;rotatable=0;whiteSpace=wrap;html=1;fontSize=14;fontFamily=Times New Roman;" parent="GYHSR6qRm1gEe9oGfBOl-23" vertex="1">
          <mxGeometry y="30" width="100" height="20" as="geometry" />
        </mxCell>
        <mxCell id="GYHSR6qRm1gEe9oGfBOl-25" value="_IO_read_base" style="text;strokeColor=default;fillColor=none;align=center;verticalAlign=middle;spacingLeft=4;spacingRight=4;overflow=hidden;points=[[0,0.5],[1,0.5]];portConstraint=eastwest;rotatable=0;whiteSpace=wrap;html=1;fontSize=14;fontFamily=Times New Roman;" parent="GYHSR6qRm1gEe9oGfBOl-23" vertex="1">
          <mxGeometry y="50" width="100" height="20" as="geometry" />
        </mxCell>
        <mxCell id="GYHSR6qRm1gEe9oGfBOl-26" value="_IO_read_ptr" style="text;strokeColor=default;fillColor=none;align=center;verticalAlign=middle;spacingLeft=4;spacingRight=4;overflow=hidden;points=[[0,0.5],[1,0.5]];portConstraint=eastwest;rotatable=0;whiteSpace=wrap;html=1;fontSize=14;fontFamily=Times New Roman;" parent="GYHSR6qRm1gEe9oGfBOl-23" vertex="1">
          <mxGeometry y="70" width="100" height="20" as="geometry" />
        </mxCell>
        <mxCell id="GYHSR6qRm1gEe9oGfBOl-27" value="_IO_read_end" style="text;strokeColor=default;fillColor=none;align=center;verticalAlign=middle;spacingLeft=4;spacingRight=4;overflow=hidden;points=[[0,0.5],[1,0.5]];portConstraint=eastwest;rotatable=0;whiteSpace=wrap;html=1;fontSize=14;fontFamily=Times New Roman;" parent="GYHSR6qRm1gEe9oGfBOl-23" vertex="1">
          <mxGeometry y="90" width="100" height="20" as="geometry" />
        </mxCell>
        <mxCell id="GYHSR6qRm1gEe9oGfBOl-28" value="_fileno" style="text;strokeColor=default;fillColor=none;align=center;verticalAlign=middle;spacingLeft=4;spacingRight=4;overflow=hidden;points=[[0,0.5],[1,0.5]];portConstraint=eastwest;rotatable=0;whiteSpace=wrap;html=1;fontSize=14;fontFamily=Times New Roman;" parent="GYHSR6qRm1gEe9oGfBOl-23" vertex="1">
          <mxGeometry y="110" width="100" height="20" as="geometry" />
        </mxCell>
        <mxCell id="GYHSR6qRm1gEe9oGfBOl-29" value="..." style="text;strokeColor=default;fillColor=none;align=center;verticalAlign=middle;spacingLeft=4;spacingRight=4;overflow=hidden;points=[[0,0.5],[1,0.5]];portConstraint=eastwest;rotatable=0;whiteSpace=wrap;html=1;fontSize=14;fontFamily=Times New Roman;" parent="GYHSR6qRm1gEe9oGfBOl-23" vertex="1">
          <mxGeometry y="130" width="100" height="20" as="geometry" />
        </mxCell>
        <mxCell id="GYHSR6qRm1gEe9oGfBOl-30" style="edgeStyle=orthogonalEdgeStyle;rounded=0;orthogonalLoop=1;jettySize=auto;html=1;exitX=1;exitY=0.5;exitDx=0;exitDy=0;fontSize=14;fontFamily=Times New Roman;" parent="x5pfj3FXUeSIFP_9i6a1-1" source="x5pfj3FXUeSIFP_9i6a1-29" target="GYHSR6qRm1gEe9oGfBOl-15" edge="1">
          <mxGeometry relative="1" as="geometry">
            <Array as="points">
              <mxPoint x="-30" y="505" />
            </Array>
          </mxGeometry>
        </mxCell>
        <mxCell id="GYHSR6qRm1gEe9oGfBOl-31" style="edgeStyle=orthogonalEdgeStyle;rounded=0;orthogonalLoop=1;jettySize=auto;html=1;exitX=1;exitY=0.5;exitDx=0;exitDy=0;fontSize=14;fontFamily=Times New Roman;" parent="x5pfj3FXUeSIFP_9i6a1-1" source="GYHSR6qRm1gEe9oGfBOl-1" target="GYHSR6qRm1gEe9oGfBOl-23" edge="1">
          <mxGeometry relative="1" as="geometry">
            <Array as="points">
              <mxPoint x="-30" y="675" />
            </Array>
          </mxGeometry>
        </mxCell>
        <mxCell id="GYHSR6qRm1gEe9oGfBOl-73" value="" style="group;fontSize=14;fontFamily=Times New Roman;" parent="x5pfj3FXUeSIFP_9i6a1-1" vertex="1" connectable="0">
          <mxGeometry x="90" y="475" width="100" height="60" as="geometry" />
        </mxCell>
        <mxCell id="GYHSR6qRm1gEe9oGfBOl-62" value="" style="group;fontSize=14;fontFamily=Times New Roman;" parent="GYHSR6qRm1gEe9oGfBOl-73" vertex="1" connectable="0">
          <mxGeometry width="100" height="40" as="geometry" />
        </mxCell>
        <mxCell id="GYHSR6qRm1gEe9oGfBOl-40" value="" style="group;fontSize=14;fontFamily=Times New Roman;" parent="GYHSR6qRm1gEe9oGfBOl-62" vertex="1" connectable="0">
          <mxGeometry x="10" y="20" width="85.71428571428571" height="20" as="geometry" />
        </mxCell>
        <mxCell id="GYHSR6qRm1gEe9oGfBOl-33" value="" style="text;strokeColor=default;fillColor=none;align=center;verticalAlign=middle;spacingLeft=4;spacingRight=4;overflow=hidden;points=[[0,0.5],[1,0.5]];portConstraint=eastwest;rotatable=0;whiteSpace=wrap;html=1;fontSize=14;fontFamily=Times New Roman;" parent="GYHSR6qRm1gEe9oGfBOl-40" vertex="1">
          <mxGeometry x="57.14285714285714" width="28.57142857142857" height="20" as="geometry" />
        </mxCell>
        <mxCell id="GYHSR6qRm1gEe9oGfBOl-34" value="" style="text;strokeColor=default;fillColor=none;align=center;verticalAlign=middle;spacingLeft=4;spacingRight=4;overflow=hidden;points=[[0,0.5],[1,0.5]];portConstraint=eastwest;rotatable=0;whiteSpace=wrap;html=1;fontSize=14;fontFamily=Times New Roman;" parent="GYHSR6qRm1gEe9oGfBOl-40" vertex="1">
          <mxGeometry x="28.57142857142857" width="28.57142857142857" height="20" as="geometry" />
        </mxCell>
        <mxCell id="GYHSR6qRm1gEe9oGfBOl-35" value="" style="text;strokeColor=default;fillColor=none;align=center;verticalAlign=middle;spacingLeft=4;spacingRight=4;overflow=hidden;points=[[0,0.5],[1,0.5]];portConstraint=eastwest;rotatable=0;whiteSpace=wrap;html=1;fontSize=14;fontFamily=Times New Roman;" parent="GYHSR6qRm1gEe9oGfBOl-40" vertex="1">
          <mxGeometry width="28.57142857142857" height="20" as="geometry" />
        </mxCell>
        <mxCell id="GYHSR6qRm1gEe9oGfBOl-61" value="char buff1[20]" style="text;strokeColor=none;fillColor=none;align=center;verticalAlign=middle;spacingLeft=4;spacingRight=4;overflow=hidden;points=[[0,0.5],[1,0.5]];portConstraint=eastwest;rotatable=0;whiteSpace=wrap;html=1;fontSize=14;fontFamily=Times New Roman;" parent="GYHSR6qRm1gEe9oGfBOl-62" vertex="1">
          <mxGeometry x="-2.5" width="105.36250000000001" height="20" as="geometry" />
        </mxCell>
        <mxCell id="GYHSR6qRm1gEe9oGfBOl-69" value="" style="group;fontSize=14;fontFamily=Times New Roman;" parent="GYHSR6qRm1gEe9oGfBOl-73" vertex="1" connectable="0">
          <mxGeometry x="10" y="40" width="85.71428571428571" height="20" as="geometry" />
        </mxCell>
        <mxCell id="GYHSR6qRm1gEe9oGfBOl-70" value="19" style="text;strokeColor=none;fillColor=none;align=center;verticalAlign=middle;spacingLeft=4;spacingRight=4;overflow=hidden;points=[[0,0.5],[1,0.5]];portConstraint=eastwest;rotatable=0;whiteSpace=wrap;html=1;fontSize=14;fontFamily=Times New Roman;" parent="GYHSR6qRm1gEe9oGfBOl-69" vertex="1">
          <mxGeometry x="57.14285714285714" width="28.57142857142857" height="20" as="geometry" />
        </mxCell>
        <mxCell id="GYHSR6qRm1gEe9oGfBOl-71" value="..." style="text;strokeColor=none;fillColor=none;align=center;verticalAlign=middle;spacingLeft=4;spacingRight=4;overflow=hidden;points=[[0,0.5],[1,0.5]];portConstraint=eastwest;rotatable=0;whiteSpace=wrap;html=1;fontSize=14;fontFamily=Times New Roman;" parent="GYHSR6qRm1gEe9oGfBOl-69" vertex="1">
          <mxGeometry x="28.57142857142857" width="28.57142857142857" height="20" as="geometry" />
        </mxCell>
        <mxCell id="GYHSR6qRm1gEe9oGfBOl-72" value="0" style="text;strokeColor=none;fillColor=none;align=center;verticalAlign=middle;spacingLeft=4;spacingRight=4;overflow=hidden;points=[[0,0.5],[1,0.5]];portConstraint=eastwest;rotatable=0;whiteSpace=wrap;html=1;fontSize=14;fontFamily=Times New Roman;" parent="GYHSR6qRm1gEe9oGfBOl-69" vertex="1">
          <mxGeometry width="28.57142857142857" height="20" as="geometry" />
        </mxCell>
        <mxCell id="GYHSR6qRm1gEe9oGfBOl-74" value="" style="group;fontSize=14;fontFamily=Times New Roman;" parent="x5pfj3FXUeSIFP_9i6a1-1" vertex="1" connectable="0">
          <mxGeometry x="90" y="635" width="100" height="60" as="geometry" />
        </mxCell>
        <mxCell id="GYHSR6qRm1gEe9oGfBOl-75" value="" style="group;fontSize=14;fontFamily=Times New Roman;" parent="GYHSR6qRm1gEe9oGfBOl-74" vertex="1" connectable="0">
          <mxGeometry width="100" height="40" as="geometry" />
        </mxCell>
        <mxCell id="GYHSR6qRm1gEe9oGfBOl-76" value="" style="group;fontSize=14;fontFamily=Times New Roman;" parent="GYHSR6qRm1gEe9oGfBOl-75" vertex="1" connectable="0">
          <mxGeometry x="10" y="20" width="85.71428571428571" height="20" as="geometry" />
        </mxCell>
        <mxCell id="GYHSR6qRm1gEe9oGfBOl-77" value="" style="text;strokeColor=default;fillColor=none;align=center;verticalAlign=middle;spacingLeft=4;spacingRight=4;overflow=hidden;points=[[0,0.5],[1,0.5]];portConstraint=eastwest;rotatable=0;whiteSpace=wrap;html=1;fontSize=14;fontFamily=Times New Roman;" parent="GYHSR6qRm1gEe9oGfBOl-76" vertex="1">
          <mxGeometry x="57.14285714285714" width="28.57142857142857" height="20" as="geometry" />
        </mxCell>
        <mxCell id="GYHSR6qRm1gEe9oGfBOl-78" value="" style="text;strokeColor=default;fillColor=none;align=center;verticalAlign=middle;spacingLeft=4;spacingRight=4;overflow=hidden;points=[[0,0.5],[1,0.5]];portConstraint=eastwest;rotatable=0;whiteSpace=wrap;html=1;fontSize=14;fontFamily=Times New Roman;" parent="GYHSR6qRm1gEe9oGfBOl-76" vertex="1">
          <mxGeometry x="28.57142857142857" width="28.57142857142857" height="20" as="geometry" />
        </mxCell>
        <mxCell id="GYHSR6qRm1gEe9oGfBOl-79" value="" style="text;strokeColor=default;fillColor=none;align=center;verticalAlign=middle;spacingLeft=4;spacingRight=4;overflow=hidden;points=[[0,0.5],[1,0.5]];portConstraint=eastwest;rotatable=0;whiteSpace=wrap;html=1;fontSize=14;fontFamily=Times New Roman;" parent="GYHSR6qRm1gEe9oGfBOl-76" vertex="1">
          <mxGeometry width="28.57142857142857" height="20" as="geometry" />
        </mxCell>
        <mxCell id="GYHSR6qRm1gEe9oGfBOl-80" value="char buff2[20]" style="text;strokeColor=none;fillColor=none;align=center;verticalAlign=middle;spacingLeft=4;spacingRight=4;overflow=hidden;points=[[0,0.5],[1,0.5]];portConstraint=eastwest;rotatable=0;whiteSpace=wrap;html=1;fontSize=14;fontFamily=Times New Roman;" parent="GYHSR6qRm1gEe9oGfBOl-75" vertex="1">
          <mxGeometry x="-2.5" width="105.36250000000001" height="20" as="geometry" />
        </mxCell>
        <mxCell id="GYHSR6qRm1gEe9oGfBOl-81" value="" style="group;fontSize=14;fontFamily=Times New Roman;" parent="GYHSR6qRm1gEe9oGfBOl-74" vertex="1" connectable="0">
          <mxGeometry x="10" y="40" width="85.71428571428571" height="20" as="geometry" />
        </mxCell>
        <mxCell id="GYHSR6qRm1gEe9oGfBOl-82" value="19" style="text;strokeColor=none;fillColor=none;align=center;verticalAlign=middle;spacingLeft=4;spacingRight=4;overflow=hidden;points=[[0,0.5],[1,0.5]];portConstraint=eastwest;rotatable=0;whiteSpace=wrap;html=1;fontSize=14;fontFamily=Times New Roman;" parent="GYHSR6qRm1gEe9oGfBOl-81" vertex="1">
          <mxGeometry x="57.14285714285714" width="28.57142857142857" height="20" as="geometry" />
        </mxCell>
        <mxCell id="GYHSR6qRm1gEe9oGfBOl-83" value="..." style="text;strokeColor=none;fillColor=none;align=center;verticalAlign=middle;spacingLeft=4;spacingRight=4;overflow=hidden;points=[[0,0.5],[1,0.5]];portConstraint=eastwest;rotatable=0;whiteSpace=wrap;html=1;fontSize=14;fontFamily=Times New Roman;" parent="GYHSR6qRm1gEe9oGfBOl-81" vertex="1">
          <mxGeometry x="28.57142857142857" width="28.57142857142857" height="20" as="geometry" />
        </mxCell>
        <mxCell id="GYHSR6qRm1gEe9oGfBOl-84" value="0" style="text;strokeColor=none;fillColor=none;align=center;verticalAlign=middle;spacingLeft=4;spacingRight=4;overflow=hidden;points=[[0,0.5],[1,0.5]];portConstraint=eastwest;rotatable=0;whiteSpace=wrap;html=1;fontSize=14;fontFamily=Times New Roman;" parent="GYHSR6qRm1gEe9oGfBOl-81" vertex="1">
          <mxGeometry width="28.57142857142857" height="20" as="geometry" />
        </mxCell>
        <mxCell id="GYHSR6qRm1gEe9oGfBOl-85" style="edgeStyle=orthogonalEdgeStyle;rounded=0;orthogonalLoop=1;jettySize=auto;html=1;exitX=1;exitY=0.5;exitDx=0;exitDy=0;fontSize=14;fontFamily=Times New Roman;" parent="x5pfj3FXUeSIFP_9i6a1-1" source="GYHSR6qRm1gEe9oGfBOl-17" target="GYHSR6qRm1gEe9oGfBOl-35" edge="1">
          <mxGeometry relative="1" as="geometry">
            <Array as="points">
              <mxPoint x="100" y="535" />
            </Array>
          </mxGeometry>
        </mxCell>
        <mxCell id="GYHSR6qRm1gEe9oGfBOl-86" style="edgeStyle=orthogonalEdgeStyle;rounded=0;orthogonalLoop=1;jettySize=auto;html=1;exitX=1;exitY=0.5;exitDx=0;exitDy=0;fontSize=14;fontFamily=Times New Roman;" parent="x5pfj3FXUeSIFP_9i6a1-1" source="GYHSR6qRm1gEe9oGfBOl-18" target="GYHSR6qRm1gEe9oGfBOl-34" edge="1">
          <mxGeometry relative="1" as="geometry">
            <Array as="points">
              <mxPoint x="130" y="555" />
            </Array>
          </mxGeometry>
        </mxCell>
        <mxCell id="GYHSR6qRm1gEe9oGfBOl-87" style="edgeStyle=orthogonalEdgeStyle;rounded=0;orthogonalLoop=1;jettySize=auto;html=1;fontSize=14;fontFamily=Times New Roman;" parent="x5pfj3FXUeSIFP_9i6a1-1" source="GYHSR6qRm1gEe9oGfBOl-19" target="GYHSR6qRm1gEe9oGfBOl-33" edge="1">
          <mxGeometry relative="1" as="geometry">
            <Array as="points">
              <mxPoint x="160" y="575" />
            </Array>
          </mxGeometry>
        </mxCell>
        <mxCell id="GYHSR6qRm1gEe9oGfBOl-88" style="edgeStyle=orthogonalEdgeStyle;rounded=0;orthogonalLoop=1;jettySize=auto;html=1;exitX=1;exitY=0.5;exitDx=0;exitDy=0;fontSize=14;fontFamily=Times New Roman;" parent="x5pfj3FXUeSIFP_9i6a1-1" source="GYHSR6qRm1gEe9oGfBOl-25" target="GYHSR6qRm1gEe9oGfBOl-79" edge="1">
          <mxGeometry relative="1" as="geometry">
            <Array as="points">
              <mxPoint x="100" y="705" />
            </Array>
          </mxGeometry>
        </mxCell>
        <mxCell id="GYHSR6qRm1gEe9oGfBOl-89" style="edgeStyle=orthogonalEdgeStyle;rounded=0;orthogonalLoop=1;jettySize=auto;html=1;exitX=1;exitY=0.5;exitDx=0;exitDy=0;fontSize=14;fontFamily=Times New Roman;" parent="x5pfj3FXUeSIFP_9i6a1-1" source="GYHSR6qRm1gEe9oGfBOl-26" target="GYHSR6qRm1gEe9oGfBOl-78" edge="1">
          <mxGeometry relative="1" as="geometry">
            <Array as="points">
              <mxPoint x="130" y="725" />
            </Array>
          </mxGeometry>
        </mxCell>
        <mxCell id="GYHSR6qRm1gEe9oGfBOl-90" style="edgeStyle=orthogonalEdgeStyle;rounded=0;orthogonalLoop=1;jettySize=auto;html=1;exitX=1;exitY=0.5;exitDx=0;exitDy=0;fontSize=14;fontFamily=Times New Roman;" parent="x5pfj3FXUeSIFP_9i6a1-1" source="GYHSR6qRm1gEe9oGfBOl-27" target="GYHSR6qRm1gEe9oGfBOl-77" edge="1">
          <mxGeometry relative="1" as="geometry">
            <Array as="points">
              <mxPoint x="160" y="745" />
            </Array>
          </mxGeometry>
        </mxCell>
        <mxCell id="GYHSR6qRm1gEe9oGfBOl-91" value="int" style="swimlane;fontStyle=0;childLayout=stackLayout;horizontal=1;startSize=30;horizontalStack=0;resizeParent=1;resizeParentMax=0;resizeLast=0;collapsible=1;marginBottom=0;whiteSpace=wrap;html=1;swimlaneLine=1;strokeColor=none;fillColor=default;fontSize=14;fontFamily=Times New Roman;" parent="x5pfj3FXUeSIFP_9i6a1-1" vertex="1">
          <mxGeometry x="160" y="560" width="50" height="50" as="geometry" />
        </mxCell>
        <mxCell id="GYHSR6qRm1gEe9oGfBOl-92" value="fd" style="text;strokeColor=default;fillColor=none;align=center;verticalAlign=middle;spacingLeft=4;spacingRight=4;overflow=hidden;points=[[0,0.5],[1,0.5]];portConstraint=eastwest;rotatable=0;whiteSpace=wrap;html=1;fontSize=14;fontFamily=Times New Roman;" parent="GYHSR6qRm1gEe9oGfBOl-91" vertex="1">
          <mxGeometry y="30" width="50" height="20" as="geometry" />
        </mxCell>
        <mxCell id="GYHSR6qRm1gEe9oGfBOl-94" style="edgeStyle=orthogonalEdgeStyle;rounded=0;orthogonalLoop=1;jettySize=auto;html=1;exitX=1;exitY=0.5;exitDx=0;exitDy=0;startArrow=none;startFill=0;endArrow=classic;endFill=1;fontSize=14;fontFamily=Times New Roman;" parent="x5pfj3FXUeSIFP_9i6a1-1" source="GYHSR6qRm1gEe9oGfBOl-28" target="GYHSR6qRm1gEe9oGfBOl-92" edge="1">
          <mxGeometry relative="1" as="geometry">
            <Array as="points">
              <mxPoint x="200" y="765" />
            </Array>
            <mxPoint x="50" y="765" as="sourcePoint" />
            <mxPoint x="180" y="595" as="targetPoint" />
          </mxGeometry>
        </mxCell>
        <mxCell id="GYHSR6qRm1gEe9oGfBOl-95" style="edgeStyle=orthogonalEdgeStyle;rounded=0;orthogonalLoop=1;jettySize=auto;html=1;exitX=1;exitY=0.5;exitDx=0;exitDy=0;entryX=0;entryY=0.5;entryDx=0;entryDy=0;fontSize=14;fontFamily=Times New Roman;" parent="x5pfj3FXUeSIFP_9i6a1-1" source="GYHSR6qRm1gEe9oGfBOl-92" edge="1">
          <mxGeometry relative="1" as="geometry">
            <mxPoint x="240" y="685" as="targetPoint" />
            <Array as="points">
              <mxPoint x="230" y="595" />
              <mxPoint x="230" y="685" />
            </Array>
          </mxGeometry>
        </mxCell>
        <mxCell id="tFeZO7xrxwOa1nlK-BcU-1" style="edgeStyle=orthogonalEdgeStyle;rounded=0;orthogonalLoop=1;jettySize=auto;html=1;exitX=1;exitY=0.5;exitDx=0;exitDy=0;endArrow=classic;endFill=1;startArrow=none;startFill=0;fontSize=14;fontFamily=Times New Roman;" parent="x5pfj3FXUeSIFP_9i6a1-1" source="GYHSR6qRm1gEe9oGfBOl-20" target="GYHSR6qRm1gEe9oGfBOl-91" edge="1">
          <mxGeometry relative="1" as="geometry">
            <Array as="points">
              <mxPoint x="130" y="595" />
              <mxPoint x="130" y="595" />
            </Array>
          </mxGeometry>
        </mxCell>
        <mxCell id="FdiOFiEe6FjTENWPVCxw-0" value="struct task_struct" style="swimlane;fontStyle=0;childLayout=stackLayout;horizontal=1;startSize=30;horizontalStack=0;resizeParent=1;resizeParentMax=0;resizeLast=0;collapsible=1;marginBottom=0;whiteSpace=wrap;html=1;swimlaneLine=1;strokeColor=none;fillColor=default;fontSize=14;fontFamily=Times New Roman;" parent="x5pfj3FXUeSIFP_9i6a1-1" vertex="1">
          <mxGeometry x="240" y="430" width="70" height="110" as="geometry">
            <mxRectangle x="130" y="310" width="130" height="30" as="alternateBounds" />
          </mxGeometry>
        </mxCell>
        <mxCell id="FdiOFiEe6FjTENWPVCxw-1" value="..." style="text;strokeColor=default;fillColor=none;align=center;verticalAlign=middle;spacingLeft=4;spacingRight=4;overflow=hidden;points=[[0,0.5],[1,0.5]];portConstraint=eastwest;rotatable=0;whiteSpace=wrap;html=1;fontSize=14;fontFamily=Times New Roman;" parent="FdiOFiEe6FjTENWPVCxw-0" vertex="1">
          <mxGeometry y="30" width="70" height="20" as="geometry" />
        </mxCell>
        <mxCell id="FdiOFiEe6FjTENWPVCxw-2" value="*fs" style="text;strokeColor=default;fillColor=none;align=center;verticalAlign=middle;spacingLeft=4;spacingRight=4;overflow=hidden;points=[[0,0.5],[1,0.5]];portConstraint=eastwest;rotatable=0;whiteSpace=wrap;html=1;fontSize=14;fontFamily=Times New Roman;" parent="FdiOFiEe6FjTENWPVCxw-0" vertex="1">
          <mxGeometry y="50" width="70" height="20" as="geometry" />
        </mxCell>
        <mxCell id="FdiOFiEe6FjTENWPVCxw-3" value="*files" style="text;strokeColor=default;fillColor=none;align=center;verticalAlign=middle;spacingLeft=4;spacingRight=4;overflow=hidden;points=[[0,0.5],[1,0.5]];portConstraint=eastwest;rotatable=0;whiteSpace=wrap;html=1;fontSize=14;fontFamily=Times New Roman;" parent="FdiOFiEe6FjTENWPVCxw-0" vertex="1">
          <mxGeometry y="70" width="70" height="20" as="geometry" />
        </mxCell>
        <mxCell id="FdiOFiEe6FjTENWPVCxw-4" value="..." style="text;strokeColor=default;fillColor=none;align=center;verticalAlign=middle;spacingLeft=4;spacingRight=4;overflow=hidden;points=[[0,0.5],[1,0.5]];portConstraint=eastwest;rotatable=0;whiteSpace=wrap;html=1;fontSize=14;fontFamily=Times New Roman;" parent="FdiOFiEe6FjTENWPVCxw-0" vertex="1">
          <mxGeometry y="90" width="70" height="20" as="geometry" />
        </mxCell>
        <mxCell id="FdiOFiEe6FjTENWPVCxw-5" value="struct files_struct" style="swimlane;fontStyle=0;childLayout=stackLayout;horizontal=1;startSize=30;horizontalStack=0;resizeParent=1;resizeParentMax=0;resizeLast=0;collapsible=1;marginBottom=0;whiteSpace=wrap;html=1;swimlaneLine=1;strokeColor=none;fillColor=default;fontSize=14;fontFamily=Times New Roman;" parent="x5pfj3FXUeSIFP_9i6a1-1" vertex="1">
          <mxGeometry x="240" y="570" width="70" height="150" as="geometry" />
        </mxCell>
        <mxCell id="FdiOFiEe6FjTENWPVCxw-6" value="..." style="text;strokeColor=default;fillColor=none;align=center;verticalAlign=middle;spacingLeft=4;spacingRight=4;overflow=hidden;points=[[0,0.5],[1,0.5]];portConstraint=eastwest;rotatable=0;whiteSpace=wrap;html=1;fontSize=14;fontFamily=Times New Roman;" parent="FdiOFiEe6FjTENWPVCxw-5" vertex="1">
          <mxGeometry y="30" width="70" height="20" as="geometry" />
        </mxCell>
        <mxCell id="FdiOFiEe6FjTENWPVCxw-7" value="fd[0]" style="text;strokeColor=default;fillColor=none;align=center;verticalAlign=middle;spacingLeft=4;spacingRight=4;overflow=hidden;points=[[0,0.5],[1,0.5]];portConstraint=eastwest;rotatable=0;whiteSpace=wrap;html=1;fontSize=14;fontFamily=Times New Roman;" parent="FdiOFiEe6FjTENWPVCxw-5" vertex="1">
          <mxGeometry y="50" width="70" height="20" as="geometry" />
        </mxCell>
        <mxCell id="FdiOFiEe6FjTENWPVCxw-8" value="fd[1&lt;span style=&quot;background-color: initial; font-size: 14px;&quot;&gt;]&lt;/span&gt;" style="text;strokeColor=default;fillColor=none;align=center;verticalAlign=middle;spacingLeft=4;spacingRight=4;overflow=hidden;points=[[0,0.5],[1,0.5]];portConstraint=eastwest;rotatable=0;whiteSpace=wrap;html=1;fontSize=14;fontFamily=Times New Roman;" parent="FdiOFiEe6FjTENWPVCxw-5" vertex="1">
          <mxGeometry y="70" width="70" height="20" as="geometry" />
        </mxCell>
        <mxCell id="FdiOFiEe6FjTENWPVCxw-9" value="fd[2]" style="text;strokeColor=default;fillColor=none;align=center;verticalAlign=middle;spacingLeft=4;spacingRight=4;overflow=hidden;points=[[0,0.5],[1,0.5]];portConstraint=eastwest;rotatable=0;whiteSpace=wrap;html=1;fontSize=14;fontFamily=Times New Roman;" parent="FdiOFiEe6FjTENWPVCxw-5" vertex="1">
          <mxGeometry y="90" width="70" height="20" as="geometry" />
        </mxCell>
        <mxCell id="FdiOFiEe6FjTENWPVCxw-10" value="fd[3]" style="text;strokeColor=default;fillColor=none;align=center;verticalAlign=middle;spacingLeft=4;spacingRight=4;overflow=hidden;points=[[0,0.5],[1,0.5]];portConstraint=eastwest;rotatable=0;whiteSpace=wrap;html=1;fontSize=14;fontFamily=Times New Roman;" parent="FdiOFiEe6FjTENWPVCxw-5" vertex="1">
          <mxGeometry y="110" width="70" height="20" as="geometry" />
        </mxCell>
        <mxCell id="FdiOFiEe6FjTENWPVCxw-12" value="..." style="text;strokeColor=default;fillColor=none;align=center;verticalAlign=middle;spacingLeft=4;spacingRight=4;overflow=hidden;points=[[0,0.5],[1,0.5]];portConstraint=eastwest;rotatable=0;whiteSpace=wrap;html=1;fontSize=14;fontFamily=Times New Roman;" parent="FdiOFiEe6FjTENWPVCxw-5" vertex="1">
          <mxGeometry y="130" width="70" height="20" as="geometry" />
        </mxCell>
        <mxCell id="FdiOFiEe6FjTENWPVCxw-13" value="struct file" style="swimlane;fontStyle=0;childLayout=stackLayout;horizontal=1;startSize=20;horizontalStack=0;resizeParent=1;resizeParentMax=0;resizeLast=0;collapsible=1;marginBottom=0;whiteSpace=wrap;html=1;swimlaneLine=1;strokeColor=none;fillColor=default;fontSize=14;fontFamily=Times New Roman;" parent="x5pfj3FXUeSIFP_9i6a1-1" vertex="1">
          <mxGeometry x="340" y="640" width="70" height="160" as="geometry" />
        </mxCell>
        <mxCell id="FdiOFiEe6FjTENWPVCxw-14" value="f_path" style="text;strokeColor=default;fillColor=none;align=center;verticalAlign=middle;spacingLeft=4;spacingRight=4;overflow=hidden;points=[[0,0.5],[1,0.5]];portConstraint=eastwest;rotatable=0;whiteSpace=wrap;html=1;fontSize=14;fontFamily=Times New Roman;" parent="FdiOFiEe6FjTENWPVCxw-13" vertex="1">
          <mxGeometry y="20" width="70" height="20" as="geometry" />
        </mxCell>
        <mxCell id="FdiOFiEe6FjTENWPVCxw-15" value="&lt;div style=&quot;color: rgb(59, 59, 59); background-color: rgb(255, 255, 255); font-size: 14px; line-height: 19px; white-space: pre;&quot;&gt;&lt;span style=&quot;color: rgb(0, 0, 0); font-size: 14px;&quot;&gt;f_inode&lt;/span&gt;&lt;/div&gt;" style="text;strokeColor=default;fillColor=none;align=center;verticalAlign=middle;spacingLeft=4;spacingRight=4;overflow=hidden;points=[[0,0.5],[1,0.5]];portConstraint=eastwest;rotatable=0;whiteSpace=wrap;html=1;fontSize=14;fontFamily=Times New Roman;" parent="FdiOFiEe6FjTENWPVCxw-13" vertex="1">
          <mxGeometry y="40" width="70" height="20" as="geometry" />
        </mxCell>
        <mxCell id="FdiOFiEe6FjTENWPVCxw-16" value="*f_op" style="text;strokeColor=default;fillColor=none;align=center;verticalAlign=middle;spacingLeft=4;spacingRight=4;overflow=hidden;points=[[0,0.5],[1,0.5]];portConstraint=eastwest;rotatable=0;whiteSpace=wrap;html=1;fontSize=14;fontFamily=Times New Roman;" parent="FdiOFiEe6FjTENWPVCxw-13" vertex="1">
          <mxGeometry y="60" width="70" height="20" as="geometry" />
        </mxCell>
        <mxCell id="FdiOFiEe6FjTENWPVCxw-17" value="&lt;div style=&quot;color: rgb(59, 59, 59); background-color: rgb(255, 255, 255); font-size: 14px; line-height: 19px; white-space: pre;&quot;&gt;&lt;span style=&quot;color: rgb(0, 0, 0); font-size: 14px;&quot;&gt;f_count&lt;/span&gt;&lt;/div&gt;" style="text;strokeColor=default;fillColor=none;align=center;verticalAlign=middle;spacingLeft=4;spacingRight=4;overflow=hidden;points=[[0,0.5],[1,0.5]];portConstraint=eastwest;rotatable=0;whiteSpace=wrap;html=1;fontSize=14;fontFamily=Times New Roman;" parent="FdiOFiEe6FjTENWPVCxw-13" vertex="1">
          <mxGeometry y="80" width="70" height="20" as="geometry" />
        </mxCell>
        <mxCell id="FdiOFiEe6FjTENWPVCxw-18" value="f_flags" style="text;strokeColor=default;fillColor=none;align=center;verticalAlign=middle;spacingLeft=4;spacingRight=4;overflow=hidden;points=[[0,0.5],[1,0.5]];portConstraint=eastwest;rotatable=0;whiteSpace=wrap;html=1;fontSize=14;fontFamily=Times New Roman;" parent="FdiOFiEe6FjTENWPVCxw-13" vertex="1">
          <mxGeometry y="100" width="70" height="20" as="geometry" />
        </mxCell>
        <mxCell id="FdiOFiEe6FjTENWPVCxw-19" value="&lt;div style=&quot;color: rgb(59, 59, 59); background-color: rgb(255, 255, 255); font-size: 14px; line-height: 19px; white-space: pre;&quot;&gt;&lt;span style=&quot;color: rgb(0, 0, 0); font-size: 14px;&quot;&gt;f_mode&lt;/span&gt;&lt;/div&gt;" style="text;strokeColor=default;fillColor=none;align=center;verticalAlign=middle;spacingLeft=4;spacingRight=4;overflow=hidden;points=[[0,0.5],[1,0.5]];portConstraint=eastwest;rotatable=0;whiteSpace=wrap;html=1;fontSize=14;fontFamily=Times New Roman;" parent="FdiOFiEe6FjTENWPVCxw-13" vertex="1">
          <mxGeometry y="120" width="70" height="20" as="geometry" />
        </mxCell>
        <mxCell id="FdiOFiEe6FjTENWPVCxw-20" value="&lt;div style=&quot;color: rgb(59, 59, 59); background-color: rgb(255, 255, 255); font-size: 14px; line-height: 19px; white-space: pre;&quot;&gt;&lt;span style=&quot;color: rgb(0, 0, 0); font-size: 14px;&quot;&gt;f_pos&lt;/span&gt;&lt;/div&gt;" style="text;strokeColor=default;fillColor=none;align=center;verticalAlign=middle;spacingLeft=4;spacingRight=4;overflow=hidden;points=[[0,0.5],[1,0.5]];portConstraint=eastwest;rotatable=0;whiteSpace=wrap;html=1;fontSize=14;fontFamily=Times New Roman;" parent="FdiOFiEe6FjTENWPVCxw-13" vertex="1">
          <mxGeometry y="140" width="70" height="20" as="geometry" />
        </mxCell>
        <mxCell id="FdiOFiEe6FjTENWPVCxw-21" value="struct path" style="swimlane;fontStyle=0;childLayout=stackLayout;horizontal=1;startSize=30;horizontalStack=0;resizeParent=1;resizeParentMax=0;resizeLast=0;collapsible=1;marginBottom=0;whiteSpace=wrap;html=1;swimlaneLine=1;strokeColor=none;fillColor=default;fontSize=14;fontFamily=Times New Roman;" parent="x5pfj3FXUeSIFP_9i6a1-1" vertex="1">
          <mxGeometry x="460" y="580" width="70" height="70" as="geometry" />
        </mxCell>
        <mxCell id="FdiOFiEe6FjTENWPVCxw-22" value="*mnt" style="text;strokeColor=default;fillColor=none;align=center;verticalAlign=middle;spacingLeft=4;spacingRight=4;overflow=hidden;points=[[0,0.5],[1,0.5]];portConstraint=eastwest;rotatable=0;whiteSpace=wrap;html=1;fontSize=14;fontFamily=Times New Roman;" parent="FdiOFiEe6FjTENWPVCxw-21" vertex="1">
          <mxGeometry y="30" width="70" height="20" as="geometry" />
        </mxCell>
        <mxCell id="FdiOFiEe6FjTENWPVCxw-23" value="*dentry" style="text;strokeColor=default;fillColor=none;align=center;verticalAlign=middle;spacingLeft=4;spacingRight=4;overflow=hidden;points=[[0,0.5],[1,0.5]];portConstraint=eastwest;rotatable=0;whiteSpace=wrap;html=1;fontSize=14;fontFamily=Times New Roman;" parent="FdiOFiEe6FjTENWPVCxw-21" vertex="1">
          <mxGeometry y="50" width="70" height="20" as="geometry" />
        </mxCell>
        <mxCell id="FdiOFiEe6FjTENWPVCxw-24" value="struct dentry &quot;alphabet.txt&quot;" style="swimlane;fontStyle=0;childLayout=stackLayout;horizontal=1;startSize=30;horizontalStack=0;resizeParent=1;resizeParentMax=0;resizeLast=0;collapsible=1;marginBottom=0;whiteSpace=wrap;html=1;swimlaneLine=1;strokeColor=none;fillColor=default;fontSize=14;fontFamily=Times New Roman;" parent="x5pfj3FXUeSIFP_9i6a1-1" vertex="1">
          <mxGeometry x="550" y="630" width="70" height="110" as="geometry" />
        </mxCell>
        <mxCell id="FdiOFiEe6FjTENWPVCxw-25" value="..." style="text;strokeColor=default;fillColor=none;align=center;verticalAlign=middle;spacingLeft=4;spacingRight=4;overflow=hidden;points=[[0,0.5],[1,0.5]];portConstraint=eastwest;rotatable=0;whiteSpace=wrap;html=1;fontSize=14;fontFamily=Times New Roman;" parent="FdiOFiEe6FjTENWPVCxw-24" vertex="1">
          <mxGeometry y="30" width="70" height="20" as="geometry" />
        </mxCell>
        <mxCell id="FdiOFiEe6FjTENWPVCxw-26" value="*d_op" style="text;strokeColor=default;fillColor=none;align=center;verticalAlign=middle;spacingLeft=4;spacingRight=4;overflow=hidden;points=[[0,0.5],[1,0.5]];portConstraint=eastwest;rotatable=0;whiteSpace=wrap;html=1;fontSize=14;fontFamily=Times New Roman;" parent="FdiOFiEe6FjTENWPVCxw-24" vertex="1">
          <mxGeometry y="50" width="70" height="20" as="geometry" />
        </mxCell>
        <mxCell id="FdiOFiEe6FjTENWPVCxw-27" value="*d_sb" style="text;strokeColor=default;fillColor=none;align=center;verticalAlign=middle;spacingLeft=4;spacingRight=4;overflow=hidden;points=[[0,0.5],[1,0.5]];portConstraint=eastwest;rotatable=0;whiteSpace=wrap;html=1;fontSize=14;fontFamily=Times New Roman;" parent="FdiOFiEe6FjTENWPVCxw-24" vertex="1">
          <mxGeometry y="70" width="70" height="20" as="geometry" />
        </mxCell>
        <mxCell id="FdiOFiEe6FjTENWPVCxw-28" value="..." style="text;strokeColor=default;fillColor=none;align=center;verticalAlign=middle;spacingLeft=4;spacingRight=4;overflow=hidden;points=[[0,0.5],[1,0.5]];portConstraint=eastwest;rotatable=0;whiteSpace=wrap;html=1;fontSize=14;fontFamily=Times New Roman;" parent="FdiOFiEe6FjTENWPVCxw-24" vertex="1">
          <mxGeometry y="90" width="70" height="20" as="geometry" />
        </mxCell>
        <mxCell id="FdiOFiEe6FjTENWPVCxw-29" value="struct super_&lt;span style=&quot;background-color: initial; font-size: 14px;&quot;&gt;block&lt;/span&gt;" style="swimlane;fontStyle=0;childLayout=stackLayout;horizontal=1;startSize=30;horizontalStack=0;resizeParent=1;resizeParentMax=0;resizeLast=0;collapsible=1;marginBottom=0;whiteSpace=wrap;html=1;swimlaneLine=1;strokeColor=none;fillColor=default;fontSize=14;fontFamily=Times New Roman;" parent="x5pfj3FXUeSIFP_9i6a1-1" vertex="1">
          <mxGeometry x="540" y="750" width="70" height="130" as="geometry" />
        </mxCell>
        <mxCell id="FdiOFiEe6FjTENWPVCxw-30" value="..." style="text;strokeColor=default;fillColor=none;align=center;verticalAlign=middle;spacingLeft=4;spacingRight=4;overflow=hidden;points=[[0,0.5],[1,0.5]];portConstraint=eastwest;rotatable=0;whiteSpace=wrap;html=1;fontSize=14;fontFamily=Times New Roman;" parent="FdiOFiEe6FjTENWPVCxw-29" vertex="1">
          <mxGeometry y="30" width="70" height="20" as="geometry" />
        </mxCell>
        <mxCell id="FdiOFiEe6FjTENWPVCxw-31" value="..." style="text;strokeColor=default;fillColor=none;align=center;verticalAlign=middle;spacingLeft=4;spacingRight=4;overflow=hidden;points=[[0,0.5],[1,0.5]];portConstraint=eastwest;rotatable=0;whiteSpace=wrap;html=1;fontSize=14;fontFamily=Times New Roman;" parent="FdiOFiEe6FjTENWPVCxw-29" vertex="1">
          <mxGeometry y="50" width="70" height="20" as="geometry" />
        </mxCell>
        <mxCell id="FdiOFiEe6FjTENWPVCxw-32" value="*s_op" style="text;strokeColor=default;fillColor=none;align=center;verticalAlign=middle;spacingLeft=4;spacingRight=4;overflow=hidden;points=[[0,0.5],[1,0.5]];portConstraint=eastwest;rotatable=0;whiteSpace=wrap;html=1;fontSize=14;fontFamily=Times New Roman;" parent="FdiOFiEe6FjTENWPVCxw-29" vertex="1">
          <mxGeometry y="70" width="70" height="20" as="geometry" />
        </mxCell>
        <mxCell id="FdiOFiEe6FjTENWPVCxw-33" value="*s_root" style="text;strokeColor=default;fillColor=none;align=center;verticalAlign=middle;spacingLeft=4;spacingRight=4;overflow=hidden;points=[[0,0.5],[1,0.5]];portConstraint=eastwest;rotatable=0;whiteSpace=wrap;html=1;fontSize=14;fontFamily=Times New Roman;" parent="FdiOFiEe6FjTENWPVCxw-29" vertex="1">
          <mxGeometry y="90" width="70" height="20" as="geometry" />
        </mxCell>
        <mxCell id="FdiOFiEe6FjTENWPVCxw-34" value="s_inodes" style="text;strokeColor=default;fillColor=none;align=center;verticalAlign=middle;spacingLeft=4;spacingRight=4;overflow=hidden;points=[[0,0.5],[1,0.5]];portConstraint=eastwest;rotatable=0;whiteSpace=wrap;html=1;fontSize=14;fontFamily=Times New Roman;" parent="FdiOFiEe6FjTENWPVCxw-29" vertex="1">
          <mxGeometry y="110" width="70" height="20" as="geometry" />
        </mxCell>
        <mxCell id="FdiOFiEe6FjTENWPVCxw-35" value="kernel mode" style="text;html=1;align=center;verticalAlign=middle;whiteSpace=wrap;rounded=0;fontSize=14;fontFamily=Times New Roman;" parent="x5pfj3FXUeSIFP_9i6a1-1" vertex="1">
          <mxGeometry x="230" y="850" width="80" height="30" as="geometry" />
        </mxCell>
        <mxCell id="FdiOFiEe6FjTENWPVCxw-36" value="struct inode" style="swimlane;fontStyle=0;childLayout=stackLayout;horizontal=1;startSize=30;horizontalStack=0;resizeParent=1;resizeParentMax=0;resizeLast=0;collapsible=1;marginBottom=0;whiteSpace=wrap;html=1;swimlaneLine=1;strokeColor=none;fillColor=default;fontSize=14;fontFamily=Times New Roman;" parent="x5pfj3FXUeSIFP_9i6a1-1" vertex="1">
          <mxGeometry x="425" y="690" width="70" height="170" as="geometry" />
        </mxCell>
        <mxCell id="FdiOFiEe6FjTENWPVCxw-37" value="i_mode" style="text;strokeColor=default;fillColor=none;align=center;verticalAlign=middle;spacingLeft=4;spacingRight=4;overflow=hidden;points=[[0,0.5],[1,0.5]];portConstraint=eastwest;rotatable=0;whiteSpace=wrap;html=1;fontSize=14;fontFamily=Times New Roman;" parent="FdiOFiEe6FjTENWPVCxw-36" vertex="1">
          <mxGeometry y="30" width="70" height="20" as="geometry" />
        </mxCell>
        <mxCell id="FdiOFiEe6FjTENWPVCxw-38" value="i_flags" style="text;strokeColor=default;fillColor=none;align=center;verticalAlign=middle;spacingLeft=4;spacingRight=4;overflow=hidden;points=[[0,0.5],[1,0.5]];portConstraint=eastwest;rotatable=0;whiteSpace=wrap;html=1;fontSize=14;fontFamily=Times New Roman;" parent="FdiOFiEe6FjTENWPVCxw-36" vertex="1">
          <mxGeometry y="50" width="70" height="20" as="geometry" />
        </mxCell>
        <mxCell id="FdiOFiEe6FjTENWPVCxw-39" value="*i_op" style="text;strokeColor=default;fillColor=none;align=center;verticalAlign=middle;spacingLeft=4;spacingRight=4;overflow=hidden;points=[[0,0.5],[1,0.5]];portConstraint=eastwest;rotatable=0;whiteSpace=wrap;html=1;fontSize=14;fontFamily=Times New Roman;" parent="FdiOFiEe6FjTENWPVCxw-36" vertex="1">
          <mxGeometry y="70" width="70" height="20" as="geometry" />
        </mxCell>
        <mxCell id="FdiOFiEe6FjTENWPVCxw-40" value="*i_sb" style="text;strokeColor=default;fillColor=none;align=center;verticalAlign=middle;spacingLeft=4;spacingRight=4;overflow=hidden;points=[[0,0.5],[1,0.5]];portConstraint=eastwest;rotatable=0;whiteSpace=wrap;html=1;fontSize=14;fontFamily=Times New Roman;" parent="FdiOFiEe6FjTENWPVCxw-36" vertex="1">
          <mxGeometry y="90" width="70" height="20" as="geometry" />
        </mxCell>
        <mxCell id="FdiOFiEe6FjTENWPVCxw-41" value="*i_mapping" style="text;strokeColor=default;fillColor=none;align=center;verticalAlign=middle;spacingLeft=4;spacingRight=4;overflow=hidden;points=[[0,0.5],[1,0.5]];portConstraint=eastwest;rotatable=0;whiteSpace=wrap;html=1;fontSize=14;fontFamily=Times New Roman;" parent="FdiOFiEe6FjTENWPVCxw-36" vertex="1">
          <mxGeometry y="110" width="70" height="20" as="geometry" />
        </mxCell>
        <mxCell id="FdiOFiEe6FjTENWPVCxw-42" value="*i_sb_list" style="text;strokeColor=default;fillColor=none;align=center;verticalAlign=middle;spacingLeft=4;spacingRight=4;overflow=hidden;points=[[0,0.5],[1,0.5]];portConstraint=eastwest;rotatable=0;whiteSpace=wrap;html=1;fontSize=14;fontFamily=Times New Roman;" parent="FdiOFiEe6FjTENWPVCxw-36" vertex="1">
          <mxGeometry y="130" width="70" height="20" as="geometry" />
        </mxCell>
        <mxCell id="FdiOFiEe6FjTENWPVCxw-43" value="..." style="text;strokeColor=default;fillColor=none;align=center;verticalAlign=middle;spacingLeft=4;spacingRight=4;overflow=hidden;points=[[0,0.5],[1,0.5]];portConstraint=eastwest;rotatable=0;whiteSpace=wrap;html=1;fontSize=14;fontFamily=Times New Roman;" parent="FdiOFiEe6FjTENWPVCxw-36" vertex="1">
          <mxGeometry y="150" width="70" height="20" as="geometry" />
        </mxCell>
        <mxCell id="FdiOFiEe6FjTENWPVCxw-44" value="struct fs_struct" style="swimlane;fontStyle=0;childLayout=stackLayout;horizontal=1;startSize=30;horizontalStack=0;resizeParent=1;resizeParentMax=0;resizeLast=0;collapsible=1;marginBottom=0;whiteSpace=wrap;html=1;swimlaneLine=1;strokeColor=none;fillColor=default;fontSize=14;fontFamily=Times New Roman;" parent="x5pfj3FXUeSIFP_9i6a1-1" vertex="1">
          <mxGeometry x="355" y="440" width="70" height="170" as="geometry" />
        </mxCell>
        <mxCell id="FdiOFiEe6FjTENWPVCxw-45" value="users" style="text;strokeColor=default;fillColor=none;align=center;verticalAlign=middle;spacingLeft=4;spacingRight=4;overflow=hidden;points=[[0,0.5],[1,0.5]];portConstraint=eastwest;rotatable=0;whiteSpace=wrap;html=1;fontSize=14;fontFamily=Times New Roman;" parent="FdiOFiEe6FjTENWPVCxw-44" vertex="1">
          <mxGeometry y="30" width="70" height="20" as="geometry" />
        </mxCell>
        <mxCell id="FdiOFiEe6FjTENWPVCxw-46" value="lock" style="text;strokeColor=default;fillColor=none;align=center;verticalAlign=middle;spacingLeft=4;spacingRight=4;overflow=hidden;points=[[0,0.5],[1,0.5]];portConstraint=eastwest;rotatable=0;whiteSpace=wrap;html=1;fontSize=14;fontFamily=Times New Roman;" parent="FdiOFiEe6FjTENWPVCxw-44" vertex="1">
          <mxGeometry y="50" width="70" height="20" as="geometry" />
        </mxCell>
        <mxCell id="FdiOFiEe6FjTENWPVCxw-47" value="seq" style="text;strokeColor=default;fillColor=none;align=center;verticalAlign=middle;spacingLeft=4;spacingRight=4;overflow=hidden;points=[[0,0.5],[1,0.5]];portConstraint=eastwest;rotatable=0;whiteSpace=wrap;html=1;fontSize=14;fontFamily=Times New Roman;" parent="FdiOFiEe6FjTENWPVCxw-44" vertex="1">
          <mxGeometry y="70" width="70" height="20" as="geometry" />
        </mxCell>
        <mxCell id="FdiOFiEe6FjTENWPVCxw-48" value="umask" style="text;strokeColor=default;fillColor=none;align=center;verticalAlign=middle;spacingLeft=4;spacingRight=4;overflow=hidden;points=[[0,0.5],[1,0.5]];portConstraint=eastwest;rotatable=0;whiteSpace=wrap;html=1;fontSize=14;fontFamily=Times New Roman;" parent="FdiOFiEe6FjTENWPVCxw-44" vertex="1">
          <mxGeometry y="90" width="70" height="20" as="geometry" />
        </mxCell>
        <mxCell id="FdiOFiEe6FjTENWPVCxw-49" value="in_exec" style="text;strokeColor=default;fillColor=none;align=center;verticalAlign=middle;spacingLeft=4;spacingRight=4;overflow=hidden;points=[[0,0.5],[1,0.5]];portConstraint=eastwest;rotatable=0;whiteSpace=wrap;html=1;fontSize=14;fontFamily=Times New Roman;" parent="FdiOFiEe6FjTENWPVCxw-44" vertex="1">
          <mxGeometry y="110" width="70" height="20" as="geometry" />
        </mxCell>
        <mxCell id="FdiOFiEe6FjTENWPVCxw-50" value="root" style="text;strokeColor=default;fillColor=none;align=center;verticalAlign=middle;spacingLeft=4;spacingRight=4;overflow=hidden;points=[[0,0.5],[1,0.5]];portConstraint=eastwest;rotatable=0;whiteSpace=wrap;html=1;fontSize=14;fontFamily=Times New Roman;" parent="FdiOFiEe6FjTENWPVCxw-44" vertex="1">
          <mxGeometry y="130" width="70" height="20" as="geometry" />
        </mxCell>
        <mxCell id="FdiOFiEe6FjTENWPVCxw-51" value="pwd" style="text;strokeColor=default;fillColor=none;align=center;verticalAlign=middle;spacingLeft=4;spacingRight=4;overflow=hidden;points=[[0,0.5],[1,0.5]];portConstraint=eastwest;rotatable=0;whiteSpace=wrap;html=1;fontSize=14;fontFamily=Times New Roman;" parent="FdiOFiEe6FjTENWPVCxw-44" vertex="1">
          <mxGeometry y="150" width="70" height="20" as="geometry" />
        </mxCell>
        <mxCell id="FdiOFiEe6FjTENWPVCxw-52" value="struct vfsmount" style="swimlane;fontStyle=0;childLayout=stackLayout;horizontal=1;startSize=30;horizontalStack=0;resizeParent=1;resizeParentMax=0;resizeLast=0;collapsible=1;marginBottom=0;whiteSpace=wrap;html=1;swimlaneLine=1;strokeColor=none;fillColor=default;fontSize=14;fontFamily=Times New Roman;" parent="x5pfj3FXUeSIFP_9i6a1-1" vertex="1">
          <mxGeometry x="550" y="505" width="70" height="90" as="geometry" />
        </mxCell>
        <mxCell id="FdiOFiEe6FjTENWPVCxw-53" value="*mnt_root" style="text;strokeColor=default;fillColor=none;align=center;verticalAlign=middle;spacingLeft=4;spacingRight=4;overflow=hidden;points=[[0,0.5],[1,0.5]];portConstraint=eastwest;rotatable=0;whiteSpace=wrap;html=1;fontSize=14;fontFamily=Times New Roman;" parent="FdiOFiEe6FjTENWPVCxw-52" vertex="1">
          <mxGeometry y="30" width="70" height="20" as="geometry" />
        </mxCell>
        <mxCell id="FdiOFiEe6FjTENWPVCxw-54" value="*mnt_sb" style="text;strokeColor=default;fillColor=none;align=center;verticalAlign=middle;spacingLeft=4;spacingRight=4;overflow=hidden;points=[[0,0.5],[1,0.5]];portConstraint=eastwest;rotatable=0;whiteSpace=wrap;html=1;fontSize=14;fontFamily=Times New Roman;" parent="FdiOFiEe6FjTENWPVCxw-52" vertex="1">
          <mxGeometry y="50" width="70" height="20" as="geometry" />
        </mxCell>
        <mxCell id="FdiOFiEe6FjTENWPVCxw-55" value="..." style="text;strokeColor=default;fillColor=none;align=center;verticalAlign=middle;spacingLeft=4;spacingRight=4;overflow=hidden;points=[[0,0.5],[1,0.5]];portConstraint=eastwest;rotatable=0;whiteSpace=wrap;html=1;fontSize=14;fontFamily=Times New Roman;" parent="FdiOFiEe6FjTENWPVCxw-52" vertex="1">
          <mxGeometry y="70" width="70" height="20" as="geometry" />
        </mxCell>
        <mxCell id="FdiOFiEe6FjTENWPVCxw-56" style="edgeStyle=orthogonalEdgeStyle;rounded=0;orthogonalLoop=1;jettySize=auto;html=1;exitX=1;exitY=0.5;exitDx=0;exitDy=0;fontFamily=Times New Roman;fontSize=14;" parent="x5pfj3FXUeSIFP_9i6a1-1" source="FdiOFiEe6FjTENWPVCxw-10" target="FdiOFiEe6FjTENWPVCxw-14" edge="1">
          <mxGeometry relative="1" as="geometry">
            <Array as="points">
              <mxPoint x="330" y="690" />
              <mxPoint x="330" y="660" />
            </Array>
          </mxGeometry>
        </mxCell>
        <mxCell id="FdiOFiEe6FjTENWPVCxw-57" style="edgeStyle=orthogonalEdgeStyle;rounded=0;orthogonalLoop=1;jettySize=auto;html=1;exitX=1;exitY=0.5;exitDx=0;exitDy=0;fontFamily=Times New Roman;fontSize=14;" parent="x5pfj3FXUeSIFP_9i6a1-1" source="FdiOFiEe6FjTENWPVCxw-15" target="FdiOFiEe6FjTENWPVCxw-36" edge="1">
          <mxGeometry relative="1" as="geometry">
            <Array as="points">
              <mxPoint x="420" y="690" />
              <mxPoint x="420" y="720" />
            </Array>
          </mxGeometry>
        </mxCell>
        <mxCell id="FdiOFiEe6FjTENWPVCxw-58" style="edgeStyle=orthogonalEdgeStyle;rounded=0;orthogonalLoop=1;jettySize=auto;html=1;exitX=1;exitY=0.5;exitDx=0;exitDy=0;fontFamily=Times New Roman;fontSize=14;" parent="x5pfj3FXUeSIFP_9i6a1-1" source="FdiOFiEe6FjTENWPVCxw-3" target="FdiOFiEe6FjTENWPVCxw-5" edge="1">
          <mxGeometry relative="1" as="geometry">
            <Array as="points">
              <mxPoint x="330" y="510" />
              <mxPoint x="330" y="550" />
              <mxPoint x="275" y="550" />
            </Array>
          </mxGeometry>
        </mxCell>
        <mxCell id="FdiOFiEe6FjTENWPVCxw-59" style="edgeStyle=orthogonalEdgeStyle;rounded=0;orthogonalLoop=1;jettySize=auto;html=1;exitX=1;exitY=0.5;exitDx=0;exitDy=0;entryX=0.009;entryY=-0.133;entryDx=0;entryDy=0;fontFamily=Times New Roman;fontSize=14;entryPerimeter=0;" parent="x5pfj3FXUeSIFP_9i6a1-1" source="FdiOFiEe6FjTENWPVCxw-14" target="FdiOFiEe6FjTENWPVCxw-22" edge="1">
          <mxGeometry relative="1" as="geometry" />
        </mxCell>
        <mxCell id="FdiOFiEe6FjTENWPVCxw-60" style="edgeStyle=orthogonalEdgeStyle;rounded=0;orthogonalLoop=1;jettySize=auto;html=1;exitX=1;exitY=0.5;exitDx=0;exitDy=0;fontFamily=Times New Roman;fontSize=14;" parent="x5pfj3FXUeSIFP_9i6a1-1" source="FdiOFiEe6FjTENWPVCxw-40" target="FdiOFiEe6FjTENWPVCxw-30" edge="1">
          <mxGeometry relative="1" as="geometry">
            <Array as="points">
              <mxPoint x="518" y="790" />
              <mxPoint x="518" y="780" />
            </Array>
          </mxGeometry>
        </mxCell>
        <mxCell id="FdiOFiEe6FjTENWPVCxw-61" style="edgeStyle=orthogonalEdgeStyle;rounded=0;orthogonalLoop=1;jettySize=auto;html=1;exitX=1;exitY=0.5;exitDx=0;exitDy=0;fontFamily=Times New Roman;fontSize=14;" parent="x5pfj3FXUeSIFP_9i6a1-1" source="FdiOFiEe6FjTENWPVCxw-54" target="FdiOFiEe6FjTENWPVCxw-30" edge="1">
          <mxGeometry relative="1" as="geometry">
            <Array as="points">
              <mxPoint x="640" y="565" />
              <mxPoint x="640" y="780" />
            </Array>
          </mxGeometry>
        </mxCell>
        <mxCell id="FdiOFiEe6FjTENWPVCxw-62" style="edgeStyle=orthogonalEdgeStyle;rounded=0;orthogonalLoop=1;jettySize=auto;html=1;exitX=1;exitY=0.5;exitDx=0;exitDy=0;entryX=0;entryY=0.5;entryDx=0;entryDy=0;fontFamily=Times New Roman;fontSize=14;" parent="x5pfj3FXUeSIFP_9i6a1-1" source="FdiOFiEe6FjTENWPVCxw-22" target="FdiOFiEe6FjTENWPVCxw-53" edge="1">
          <mxGeometry relative="1" as="geometry">
            <Array as="points">
              <mxPoint x="540" y="620" />
              <mxPoint x="540" y="545" />
            </Array>
          </mxGeometry>
        </mxCell>
        <mxCell id="FdiOFiEe6FjTENWPVCxw-63" style="edgeStyle=orthogonalEdgeStyle;rounded=0;orthogonalLoop=1;jettySize=auto;html=1;exitX=1;exitY=0.5;exitDx=0;exitDy=0;entryX=0;entryY=0.25;entryDx=0;entryDy=0;fontFamily=Times New Roman;fontSize=14;" parent="x5pfj3FXUeSIFP_9i6a1-1" source="FdiOFiEe6FjTENWPVCxw-23" target="FdiOFiEe6FjTENWPVCxw-24" edge="1">
          <mxGeometry relative="1" as="geometry">
            <Array as="points">
              <mxPoint x="540" y="640" />
              <mxPoint x="540" y="658" />
            </Array>
          </mxGeometry>
        </mxCell>
        <mxCell id="FdiOFiEe6FjTENWPVCxw-64" style="edgeStyle=orthogonalEdgeStyle;rounded=0;orthogonalLoop=1;jettySize=auto;html=1;exitX=1;exitY=0.5;exitDx=0;exitDy=0;" parent="x5pfj3FXUeSIFP_9i6a1-1" source="FdiOFiEe6FjTENWPVCxw-2" target="FdiOFiEe6FjTENWPVCxw-45" edge="1">
          <mxGeometry relative="1" as="geometry">
            <Array as="points">
              <mxPoint x="332" y="490" />
              <mxPoint x="332" y="470" />
            </Array>
          </mxGeometry>
        </mxCell>
        <mxCell id="FdiOFiEe6FjTENWPVCxw-65" style="edgeStyle=orthogonalEdgeStyle;rounded=0;orthogonalLoop=1;jettySize=auto;html=1;exitX=1;exitY=0.5;exitDx=0;exitDy=0;entryX=0.99;entryY=-0.017;entryDx=0;entryDy=0;entryPerimeter=0;" parent="x5pfj3FXUeSIFP_9i6a1-1" source="FdiOFiEe6FjTENWPVCxw-27" target="FdiOFiEe6FjTENWPVCxw-30" edge="1">
          <mxGeometry relative="1" as="geometry">
            <Array as="points">
              <mxPoint x="640" y="710" />
              <mxPoint x="640" y="780" />
              <mxPoint x="609" y="780" />
            </Array>
          </mxGeometry>
        </mxCell>
      </root>
    </mxGraphModel>
  </diagram>
  <diagram id="4UALYeJsh1kbrF8Z9whD" name="2">
    <mxGraphModel dx="954" dy="657" grid="1" gridSize="10" guides="1" tooltips="1" connect="1" arrows="1" fold="1" page="1" pageScale="1" pageWidth="980" pageHeight="1390" math="0" shadow="0">
      <root>
        <mxCell id="0" />
        <mxCell id="1" parent="0" />
        <mxCell id="1YZEHhr3gAnOusNGVTl0-1" value="struct task_struct" style="swimlane;fontStyle=0;childLayout=stackLayout;horizontal=1;startSize=30;horizontalStack=0;resizeParent=1;resizeParentMax=0;resizeLast=0;collapsible=1;marginBottom=0;whiteSpace=wrap;html=1;swimlaneLine=1;strokeColor=none;fillColor=default;fontSize=14;fontFamily=Times New Roman;" vertex="1" parent="1">
          <mxGeometry x="240" y="430" width="70" height="110" as="geometry">
            <mxRectangle x="130" y="310" width="130" height="30" as="alternateBounds" />
          </mxGeometry>
        </mxCell>
        <mxCell id="1YZEHhr3gAnOusNGVTl0-2" value="..." style="text;strokeColor=default;fillColor=none;align=center;verticalAlign=middle;spacingLeft=4;spacingRight=4;overflow=hidden;points=[[0,0.5],[1,0.5]];portConstraint=eastwest;rotatable=0;whiteSpace=wrap;html=1;fontSize=14;fontFamily=Times New Roman;" vertex="1" parent="1YZEHhr3gAnOusNGVTl0-1">
          <mxGeometry y="30" width="70" height="20" as="geometry" />
        </mxCell>
        <mxCell id="1YZEHhr3gAnOusNGVTl0-3" value="*fs" style="text;strokeColor=default;fillColor=none;align=center;verticalAlign=middle;spacingLeft=4;spacingRight=4;overflow=hidden;points=[[0,0.5],[1,0.5]];portConstraint=eastwest;rotatable=0;whiteSpace=wrap;html=1;fontSize=14;fontFamily=Times New Roman;" vertex="1" parent="1YZEHhr3gAnOusNGVTl0-1">
          <mxGeometry y="50" width="70" height="20" as="geometry" />
        </mxCell>
        <mxCell id="1YZEHhr3gAnOusNGVTl0-4" value="*files" style="text;strokeColor=default;fillColor=none;align=center;verticalAlign=middle;spacingLeft=4;spacingRight=4;overflow=hidden;points=[[0,0.5],[1,0.5]];portConstraint=eastwest;rotatable=0;whiteSpace=wrap;html=1;fontSize=14;fontFamily=Times New Roman;" vertex="1" parent="1YZEHhr3gAnOusNGVTl0-1">
          <mxGeometry y="70" width="70" height="20" as="geometry" />
        </mxCell>
        <mxCell id="1YZEHhr3gAnOusNGVTl0-5" value="..." style="text;strokeColor=default;fillColor=none;align=center;verticalAlign=middle;spacingLeft=4;spacingRight=4;overflow=hidden;points=[[0,0.5],[1,0.5]];portConstraint=eastwest;rotatable=0;whiteSpace=wrap;html=1;fontSize=14;fontFamily=Times New Roman;" vertex="1" parent="1YZEHhr3gAnOusNGVTl0-1">
          <mxGeometry y="90" width="70" height="20" as="geometry" />
        </mxCell>
        <mxCell id="1YZEHhr3gAnOusNGVTl0-6" value="struct files_struct" style="swimlane;fontStyle=0;childLayout=stackLayout;horizontal=1;startSize=30;horizontalStack=0;resizeParent=1;resizeParentMax=0;resizeLast=0;collapsible=1;marginBottom=0;whiteSpace=wrap;html=1;swimlaneLine=1;strokeColor=none;fillColor=default;fontSize=14;fontFamily=Times New Roman;" vertex="1" parent="1">
          <mxGeometry x="240" y="570" width="70" height="170" as="geometry" />
        </mxCell>
        <mxCell id="1YZEHhr3gAnOusNGVTl0-7" value="..." style="text;strokeColor=default;fillColor=none;align=center;verticalAlign=middle;spacingLeft=4;spacingRight=4;overflow=hidden;points=[[0,0.5],[1,0.5]];portConstraint=eastwest;rotatable=0;whiteSpace=wrap;html=1;fontSize=14;fontFamily=Times New Roman;" vertex="1" parent="1YZEHhr3gAnOusNGVTl0-6">
          <mxGeometry y="30" width="70" height="20" as="geometry" />
        </mxCell>
        <mxCell id="1YZEHhr3gAnOusNGVTl0-8" value="fd[0]" style="text;strokeColor=default;fillColor=none;align=center;verticalAlign=middle;spacingLeft=4;spacingRight=4;overflow=hidden;points=[[0,0.5],[1,0.5]];portConstraint=eastwest;rotatable=0;whiteSpace=wrap;html=1;fontSize=14;fontFamily=Times New Roman;" vertex="1" parent="1YZEHhr3gAnOusNGVTl0-6">
          <mxGeometry y="50" width="70" height="20" as="geometry" />
        </mxCell>
        <mxCell id="1YZEHhr3gAnOusNGVTl0-9" value="fd[1&lt;span style=&quot;background-color: initial; font-size: 14px;&quot;&gt;]&lt;/span&gt;" style="text;strokeColor=default;fillColor=none;align=center;verticalAlign=middle;spacingLeft=4;spacingRight=4;overflow=hidden;points=[[0,0.5],[1,0.5]];portConstraint=eastwest;rotatable=0;whiteSpace=wrap;html=1;fontSize=14;fontFamily=Times New Roman;" vertex="1" parent="1YZEHhr3gAnOusNGVTl0-6">
          <mxGeometry y="70" width="70" height="20" as="geometry" />
        </mxCell>
        <mxCell id="1YZEHhr3gAnOusNGVTl0-10" value="fd[2]" style="text;strokeColor=default;fillColor=none;align=center;verticalAlign=middle;spacingLeft=4;spacingRight=4;overflow=hidden;points=[[0,0.5],[1,0.5]];portConstraint=eastwest;rotatable=0;whiteSpace=wrap;html=1;fontSize=14;fontFamily=Times New Roman;" vertex="1" parent="1YZEHhr3gAnOusNGVTl0-6">
          <mxGeometry y="90" width="70" height="20" as="geometry" />
        </mxCell>
        <mxCell id="1YZEHhr3gAnOusNGVTl0-11" value="fd[3]" style="text;strokeColor=default;fillColor=none;align=center;verticalAlign=middle;spacingLeft=4;spacingRight=4;overflow=hidden;points=[[0,0.5],[1,0.5]];portConstraint=eastwest;rotatable=0;whiteSpace=wrap;html=1;fontSize=14;fontFamily=Times New Roman;" vertex="1" parent="1YZEHhr3gAnOusNGVTl0-6">
          <mxGeometry y="110" width="70" height="20" as="geometry" />
        </mxCell>
        <mxCell id="1YZEHhr3gAnOusNGVTl0-121" value="fd[4]" style="text;strokeColor=default;fillColor=none;align=center;verticalAlign=middle;spacingLeft=4;spacingRight=4;overflow=hidden;points=[[0,0.5],[1,0.5]];portConstraint=eastwest;rotatable=0;whiteSpace=wrap;html=1;fontSize=14;fontFamily=Times New Roman;" vertex="1" parent="1YZEHhr3gAnOusNGVTl0-6">
          <mxGeometry y="130" width="70" height="20" as="geometry" />
        </mxCell>
        <mxCell id="1YZEHhr3gAnOusNGVTl0-12" value="..." style="text;strokeColor=default;fillColor=none;align=center;verticalAlign=middle;spacingLeft=4;spacingRight=4;overflow=hidden;points=[[0,0.5],[1,0.5]];portConstraint=eastwest;rotatable=0;whiteSpace=wrap;html=1;fontSize=14;fontFamily=Times New Roman;" vertex="1" parent="1YZEHhr3gAnOusNGVTl0-6">
          <mxGeometry y="150" width="70" height="20" as="geometry" />
        </mxCell>
        <mxCell id="1YZEHhr3gAnOusNGVTl0-13" value="struct file" style="swimlane;fontStyle=0;childLayout=stackLayout;horizontal=1;startSize=20;horizontalStack=0;resizeParent=1;resizeParentMax=0;resizeLast=0;collapsible=1;marginBottom=0;whiteSpace=wrap;html=1;swimlaneLine=1;strokeColor=none;fillColor=default;fontSize=14;fontFamily=Times New Roman;" vertex="1" parent="1">
          <mxGeometry x="340" y="640" width="70" height="160" as="geometry" />
        </mxCell>
        <mxCell id="1YZEHhr3gAnOusNGVTl0-14" value="f_path" style="text;strokeColor=default;fillColor=none;align=center;verticalAlign=middle;spacingLeft=4;spacingRight=4;overflow=hidden;points=[[0,0.5],[1,0.5]];portConstraint=eastwest;rotatable=0;whiteSpace=wrap;html=1;fontSize=14;fontFamily=Times New Roman;" vertex="1" parent="1YZEHhr3gAnOusNGVTl0-13">
          <mxGeometry y="20" width="70" height="20" as="geometry" />
        </mxCell>
        <mxCell id="1YZEHhr3gAnOusNGVTl0-15" value="&lt;div style=&quot;color: rgb(59, 59, 59); background-color: rgb(255, 255, 255); font-size: 14px; line-height: 19px; white-space: pre;&quot;&gt;&lt;span style=&quot;color: rgb(0, 0, 0); font-size: 14px;&quot;&gt;f_inode&lt;/span&gt;&lt;/div&gt;" style="text;strokeColor=default;fillColor=none;align=center;verticalAlign=middle;spacingLeft=4;spacingRight=4;overflow=hidden;points=[[0,0.5],[1,0.5]];portConstraint=eastwest;rotatable=0;whiteSpace=wrap;html=1;fontSize=14;fontFamily=Times New Roman;" vertex="1" parent="1YZEHhr3gAnOusNGVTl0-13">
          <mxGeometry y="40" width="70" height="20" as="geometry" />
        </mxCell>
        <mxCell id="1YZEHhr3gAnOusNGVTl0-16" value="*f_op" style="text;strokeColor=default;fillColor=none;align=center;verticalAlign=middle;spacingLeft=4;spacingRight=4;overflow=hidden;points=[[0,0.5],[1,0.5]];portConstraint=eastwest;rotatable=0;whiteSpace=wrap;html=1;fontSize=14;fontFamily=Times New Roman;" vertex="1" parent="1YZEHhr3gAnOusNGVTl0-13">
          <mxGeometry y="60" width="70" height="20" as="geometry" />
        </mxCell>
        <mxCell id="1YZEHhr3gAnOusNGVTl0-17" value="&lt;div style=&quot;color: rgb(59, 59, 59); background-color: rgb(255, 255, 255); font-size: 14px; line-height: 19px; white-space: pre;&quot;&gt;&lt;span style=&quot;color: rgb(0, 0, 0); font-size: 14px;&quot;&gt;f_count&lt;/span&gt;&lt;/div&gt;" style="text;strokeColor=default;fillColor=none;align=center;verticalAlign=middle;spacingLeft=4;spacingRight=4;overflow=hidden;points=[[0,0.5],[1,0.5]];portConstraint=eastwest;rotatable=0;whiteSpace=wrap;html=1;fontSize=14;fontFamily=Times New Roman;" vertex="1" parent="1YZEHhr3gAnOusNGVTl0-13">
          <mxGeometry y="80" width="70" height="20" as="geometry" />
        </mxCell>
        <mxCell id="1YZEHhr3gAnOusNGVTl0-18" value="f_flags" style="text;strokeColor=default;fillColor=none;align=center;verticalAlign=middle;spacingLeft=4;spacingRight=4;overflow=hidden;points=[[0,0.5],[1,0.5]];portConstraint=eastwest;rotatable=0;whiteSpace=wrap;html=1;fontSize=14;fontFamily=Times New Roman;" vertex="1" parent="1YZEHhr3gAnOusNGVTl0-13">
          <mxGeometry y="100" width="70" height="20" as="geometry" />
        </mxCell>
        <mxCell id="1YZEHhr3gAnOusNGVTl0-19" value="&lt;div style=&quot;color: rgb(59, 59, 59); background-color: rgb(255, 255, 255); font-size: 14px; line-height: 19px; white-space: pre;&quot;&gt;&lt;span style=&quot;color: rgb(0, 0, 0); font-size: 14px;&quot;&gt;f_mode&lt;/span&gt;&lt;/div&gt;" style="text;strokeColor=default;fillColor=none;align=center;verticalAlign=middle;spacingLeft=4;spacingRight=4;overflow=hidden;points=[[0,0.5],[1,0.5]];portConstraint=eastwest;rotatable=0;whiteSpace=wrap;html=1;fontSize=14;fontFamily=Times New Roman;" vertex="1" parent="1YZEHhr3gAnOusNGVTl0-13">
          <mxGeometry y="120" width="70" height="20" as="geometry" />
        </mxCell>
        <mxCell id="1YZEHhr3gAnOusNGVTl0-20" value="&lt;div style=&quot;color: rgb(59, 59, 59); background-color: rgb(255, 255, 255); font-size: 14px; line-height: 19px; white-space: pre;&quot;&gt;&lt;span style=&quot;color: rgb(0, 0, 0); font-size: 14px;&quot;&gt;f_pos&lt;/span&gt;&lt;/div&gt;" style="text;strokeColor=default;fillColor=none;align=center;verticalAlign=middle;spacingLeft=4;spacingRight=4;overflow=hidden;points=[[0,0.5],[1,0.5]];portConstraint=eastwest;rotatable=0;whiteSpace=wrap;html=1;fontSize=14;fontFamily=Times New Roman;" vertex="1" parent="1YZEHhr3gAnOusNGVTl0-13">
          <mxGeometry y="140" width="70" height="20" as="geometry" />
        </mxCell>
        <mxCell id="1YZEHhr3gAnOusNGVTl0-23" value="struct path" style="swimlane;fontStyle=0;childLayout=stackLayout;horizontal=1;startSize=30;horizontalStack=0;resizeParent=1;resizeParentMax=0;resizeLast=0;collapsible=1;marginBottom=0;whiteSpace=wrap;html=1;swimlaneLine=1;strokeColor=none;fillColor=default;fontSize=14;fontFamily=Times New Roman;" vertex="1" parent="1">
          <mxGeometry x="460" y="580" width="70" height="70" as="geometry" />
        </mxCell>
        <mxCell id="1YZEHhr3gAnOusNGVTl0-24" value="*mnt" style="text;strokeColor=default;fillColor=none;align=center;verticalAlign=middle;spacingLeft=4;spacingRight=4;overflow=hidden;points=[[0,0.5],[1,0.5]];portConstraint=eastwest;rotatable=0;whiteSpace=wrap;html=1;fontSize=14;fontFamily=Times New Roman;" vertex="1" parent="1YZEHhr3gAnOusNGVTl0-23">
          <mxGeometry y="30" width="70" height="20" as="geometry" />
        </mxCell>
        <mxCell id="1YZEHhr3gAnOusNGVTl0-25" value="*dentry" style="text;strokeColor=default;fillColor=none;align=center;verticalAlign=middle;spacingLeft=4;spacingRight=4;overflow=hidden;points=[[0,0.5],[1,0.5]];portConstraint=eastwest;rotatable=0;whiteSpace=wrap;html=1;fontSize=14;fontFamily=Times New Roman;" vertex="1" parent="1YZEHhr3gAnOusNGVTl0-23">
          <mxGeometry y="50" width="70" height="20" as="geometry" />
        </mxCell>
        <mxCell id="1YZEHhr3gAnOusNGVTl0-26" value="struct dentry &quot;alphabet.txt&quot;" style="swimlane;fontStyle=0;childLayout=stackLayout;horizontal=1;startSize=30;horizontalStack=0;resizeParent=1;resizeParentMax=0;resizeLast=0;collapsible=1;marginBottom=0;whiteSpace=wrap;html=1;swimlaneLine=1;strokeColor=none;fillColor=default;fontSize=14;fontFamily=Times New Roman;" vertex="1" parent="1">
          <mxGeometry x="550" y="630" width="70" height="110" as="geometry" />
        </mxCell>
        <mxCell id="1YZEHhr3gAnOusNGVTl0-27" value="..." style="text;strokeColor=default;fillColor=none;align=center;verticalAlign=middle;spacingLeft=4;spacingRight=4;overflow=hidden;points=[[0,0.5],[1,0.5]];portConstraint=eastwest;rotatable=0;whiteSpace=wrap;html=1;fontSize=14;fontFamily=Times New Roman;" vertex="1" parent="1YZEHhr3gAnOusNGVTl0-26">
          <mxGeometry y="30" width="70" height="20" as="geometry" />
        </mxCell>
        <mxCell id="1YZEHhr3gAnOusNGVTl0-28" value="*d_op" style="text;strokeColor=default;fillColor=none;align=center;verticalAlign=middle;spacingLeft=4;spacingRight=4;overflow=hidden;points=[[0,0.5],[1,0.5]];portConstraint=eastwest;rotatable=0;whiteSpace=wrap;html=1;fontSize=14;fontFamily=Times New Roman;" vertex="1" parent="1YZEHhr3gAnOusNGVTl0-26">
          <mxGeometry y="50" width="70" height="20" as="geometry" />
        </mxCell>
        <mxCell id="1YZEHhr3gAnOusNGVTl0-29" value="*d_sb" style="text;strokeColor=default;fillColor=none;align=center;verticalAlign=middle;spacingLeft=4;spacingRight=4;overflow=hidden;points=[[0,0.5],[1,0.5]];portConstraint=eastwest;rotatable=0;whiteSpace=wrap;html=1;fontSize=14;fontFamily=Times New Roman;" vertex="1" parent="1YZEHhr3gAnOusNGVTl0-26">
          <mxGeometry y="70" width="70" height="20" as="geometry" />
        </mxCell>
        <mxCell id="1YZEHhr3gAnOusNGVTl0-30" value="..." style="text;strokeColor=default;fillColor=none;align=center;verticalAlign=middle;spacingLeft=4;spacingRight=4;overflow=hidden;points=[[0,0.5],[1,0.5]];portConstraint=eastwest;rotatable=0;whiteSpace=wrap;html=1;fontSize=14;fontFamily=Times New Roman;" vertex="1" parent="1YZEHhr3gAnOusNGVTl0-26">
          <mxGeometry y="90" width="70" height="20" as="geometry" />
        </mxCell>
        <mxCell id="1YZEHhr3gAnOusNGVTl0-31" value="struct super_&lt;span style=&quot;background-color: initial; font-size: 14px;&quot;&gt;block&lt;/span&gt;" style="swimlane;fontStyle=0;childLayout=stackLayout;horizontal=1;startSize=30;horizontalStack=0;resizeParent=1;resizeParentMax=0;resizeLast=0;collapsible=1;marginBottom=0;whiteSpace=wrap;html=1;swimlaneLine=1;strokeColor=none;fillColor=default;fontSize=14;fontFamily=Times New Roman;" vertex="1" parent="1">
          <mxGeometry x="540" y="750" width="70" height="130" as="geometry" />
        </mxCell>
        <mxCell id="1YZEHhr3gAnOusNGVTl0-32" value="..." style="text;strokeColor=default;fillColor=none;align=center;verticalAlign=middle;spacingLeft=4;spacingRight=4;overflow=hidden;points=[[0,0.5],[1,0.5]];portConstraint=eastwest;rotatable=0;whiteSpace=wrap;html=1;fontSize=14;fontFamily=Times New Roman;" vertex="1" parent="1YZEHhr3gAnOusNGVTl0-31">
          <mxGeometry y="30" width="70" height="20" as="geometry" />
        </mxCell>
        <mxCell id="1YZEHhr3gAnOusNGVTl0-33" value="..." style="text;strokeColor=default;fillColor=none;align=center;verticalAlign=middle;spacingLeft=4;spacingRight=4;overflow=hidden;points=[[0,0.5],[1,0.5]];portConstraint=eastwest;rotatable=0;whiteSpace=wrap;html=1;fontSize=14;fontFamily=Times New Roman;" vertex="1" parent="1YZEHhr3gAnOusNGVTl0-31">
          <mxGeometry y="50" width="70" height="20" as="geometry" />
        </mxCell>
        <mxCell id="1YZEHhr3gAnOusNGVTl0-34" value="*s_op" style="text;strokeColor=default;fillColor=none;align=center;verticalAlign=middle;spacingLeft=4;spacingRight=4;overflow=hidden;points=[[0,0.5],[1,0.5]];portConstraint=eastwest;rotatable=0;whiteSpace=wrap;html=1;fontSize=14;fontFamily=Times New Roman;" vertex="1" parent="1YZEHhr3gAnOusNGVTl0-31">
          <mxGeometry y="70" width="70" height="20" as="geometry" />
        </mxCell>
        <mxCell id="1YZEHhr3gAnOusNGVTl0-35" value="*s_root" style="text;strokeColor=default;fillColor=none;align=center;verticalAlign=middle;spacingLeft=4;spacingRight=4;overflow=hidden;points=[[0,0.5],[1,0.5]];portConstraint=eastwest;rotatable=0;whiteSpace=wrap;html=1;fontSize=14;fontFamily=Times New Roman;" vertex="1" parent="1YZEHhr3gAnOusNGVTl0-31">
          <mxGeometry y="90" width="70" height="20" as="geometry" />
        </mxCell>
        <mxCell id="1YZEHhr3gAnOusNGVTl0-36" value="s_inodes" style="text;strokeColor=default;fillColor=none;align=center;verticalAlign=middle;spacingLeft=4;spacingRight=4;overflow=hidden;points=[[0,0.5],[1,0.5]];portConstraint=eastwest;rotatable=0;whiteSpace=wrap;html=1;fontSize=14;fontFamily=Times New Roman;" vertex="1" parent="1YZEHhr3gAnOusNGVTl0-31">
          <mxGeometry y="110" width="70" height="20" as="geometry" />
        </mxCell>
        <mxCell id="1YZEHhr3gAnOusNGVTl0-37" value="" style="endArrow=none;html=1;rounded=0;strokeWidth=2;fontSize=14;fontFamily=Times New Roman;" edge="1" parent="1">
          <mxGeometry width="50" height="50" relative="1" as="geometry">
            <mxPoint x="220" y="440" as="sourcePoint" />
            <mxPoint x="220" y="880" as="targetPoint" />
            <Array as="points">
              <mxPoint x="220" y="660" />
            </Array>
          </mxGeometry>
        </mxCell>
        <mxCell id="1YZEHhr3gAnOusNGVTl0-38" value="user mode" style="text;html=1;align=center;verticalAlign=middle;whiteSpace=wrap;rounded=0;fontSize=14;fontFamily=Times New Roman;" vertex="1" parent="1">
          <mxGeometry x="130" y="850" width="80" height="30" as="geometry" />
        </mxCell>
        <mxCell id="1YZEHhr3gAnOusNGVTl0-39" value="kernel mode" style="text;html=1;align=center;verticalAlign=middle;whiteSpace=wrap;rounded=0;fontSize=14;fontFamily=Times New Roman;" vertex="1" parent="1">
          <mxGeometry x="230" y="850" width="80" height="30" as="geometry" />
        </mxCell>
        <mxCell id="1YZEHhr3gAnOusNGVTl0-40" value="struct inode" style="swimlane;fontStyle=0;childLayout=stackLayout;horizontal=1;startSize=30;horizontalStack=0;resizeParent=1;resizeParentMax=0;resizeLast=0;collapsible=1;marginBottom=0;whiteSpace=wrap;html=1;swimlaneLine=1;strokeColor=none;fillColor=default;fontSize=14;fontFamily=Times New Roman;" vertex="1" parent="1">
          <mxGeometry x="425" y="690" width="70" height="170" as="geometry" />
        </mxCell>
        <mxCell id="1YZEHhr3gAnOusNGVTl0-41" value="i_mode" style="text;strokeColor=default;fillColor=none;align=center;verticalAlign=middle;spacingLeft=4;spacingRight=4;overflow=hidden;points=[[0,0.5],[1,0.5]];portConstraint=eastwest;rotatable=0;whiteSpace=wrap;html=1;fontSize=14;fontFamily=Times New Roman;" vertex="1" parent="1YZEHhr3gAnOusNGVTl0-40">
          <mxGeometry y="30" width="70" height="20" as="geometry" />
        </mxCell>
        <mxCell id="1YZEHhr3gAnOusNGVTl0-42" value="i_flags" style="text;strokeColor=default;fillColor=none;align=center;verticalAlign=middle;spacingLeft=4;spacingRight=4;overflow=hidden;points=[[0,0.5],[1,0.5]];portConstraint=eastwest;rotatable=0;whiteSpace=wrap;html=1;fontSize=14;fontFamily=Times New Roman;" vertex="1" parent="1YZEHhr3gAnOusNGVTl0-40">
          <mxGeometry y="50" width="70" height="20" as="geometry" />
        </mxCell>
        <mxCell id="1YZEHhr3gAnOusNGVTl0-43" value="*i_op" style="text;strokeColor=default;fillColor=none;align=center;verticalAlign=middle;spacingLeft=4;spacingRight=4;overflow=hidden;points=[[0,0.5],[1,0.5]];portConstraint=eastwest;rotatable=0;whiteSpace=wrap;html=1;fontSize=14;fontFamily=Times New Roman;" vertex="1" parent="1YZEHhr3gAnOusNGVTl0-40">
          <mxGeometry y="70" width="70" height="20" as="geometry" />
        </mxCell>
        <mxCell id="1YZEHhr3gAnOusNGVTl0-44" value="*i_sb" style="text;strokeColor=default;fillColor=none;align=center;verticalAlign=middle;spacingLeft=4;spacingRight=4;overflow=hidden;points=[[0,0.5],[1,0.5]];portConstraint=eastwest;rotatable=0;whiteSpace=wrap;html=1;fontSize=14;fontFamily=Times New Roman;" vertex="1" parent="1YZEHhr3gAnOusNGVTl0-40">
          <mxGeometry y="90" width="70" height="20" as="geometry" />
        </mxCell>
        <mxCell id="1YZEHhr3gAnOusNGVTl0-45" value="*i_mapping" style="text;strokeColor=default;fillColor=none;align=center;verticalAlign=middle;spacingLeft=4;spacingRight=4;overflow=hidden;points=[[0,0.5],[1,0.5]];portConstraint=eastwest;rotatable=0;whiteSpace=wrap;html=1;fontSize=14;fontFamily=Times New Roman;" vertex="1" parent="1YZEHhr3gAnOusNGVTl0-40">
          <mxGeometry y="110" width="70" height="20" as="geometry" />
        </mxCell>
        <mxCell id="1YZEHhr3gAnOusNGVTl0-46" value="*i_sb_list" style="text;strokeColor=default;fillColor=none;align=center;verticalAlign=middle;spacingLeft=4;spacingRight=4;overflow=hidden;points=[[0,0.5],[1,0.5]];portConstraint=eastwest;rotatable=0;whiteSpace=wrap;html=1;fontSize=14;fontFamily=Times New Roman;" vertex="1" parent="1YZEHhr3gAnOusNGVTl0-40">
          <mxGeometry y="130" width="70" height="20" as="geometry" />
        </mxCell>
        <mxCell id="1YZEHhr3gAnOusNGVTl0-47" value="..." style="text;strokeColor=default;fillColor=none;align=center;verticalAlign=middle;spacingLeft=4;spacingRight=4;overflow=hidden;points=[[0,0.5],[1,0.5]];portConstraint=eastwest;rotatable=0;whiteSpace=wrap;html=1;fontSize=14;fontFamily=Times New Roman;" vertex="1" parent="1YZEHhr3gAnOusNGVTl0-40">
          <mxGeometry y="150" width="70" height="20" as="geometry" />
        </mxCell>
        <mxCell id="1YZEHhr3gAnOusNGVTl0-94" value="int" style="swimlane;fontStyle=0;childLayout=stackLayout;horizontal=1;startSize=30;horizontalStack=0;resizeParent=1;resizeParentMax=0;resizeLast=0;collapsible=1;marginBottom=0;whiteSpace=wrap;html=1;swimlaneLine=1;strokeColor=none;fillColor=default;fontSize=14;fontFamily=Times New Roman;" vertex="1" parent="1">
          <mxGeometry x="145" y="630" width="50" height="50" as="geometry" />
        </mxCell>
        <mxCell id="1YZEHhr3gAnOusNGVTl0-95" value="fd1" style="text;strokeColor=default;fillColor=none;align=center;verticalAlign=middle;spacingLeft=4;spacingRight=4;overflow=hidden;points=[[0,0.5],[1,0.5]];portConstraint=eastwest;rotatable=0;whiteSpace=wrap;html=1;fontSize=14;fontFamily=Times New Roman;" vertex="1" parent="1YZEHhr3gAnOusNGVTl0-94">
          <mxGeometry y="30" width="50" height="20" as="geometry" />
        </mxCell>
        <mxCell id="1YZEHhr3gAnOusNGVTl0-97" style="edgeStyle=orthogonalEdgeStyle;rounded=0;orthogonalLoop=1;jettySize=auto;html=1;exitX=1;exitY=0.5;exitDx=0;exitDy=0;entryX=0;entryY=0.5;entryDx=0;entryDy=0;fontSize=14;fontFamily=Times New Roman;" edge="1" parent="1" source="1YZEHhr3gAnOusNGVTl0-95" target="1YZEHhr3gAnOusNGVTl0-11">
          <mxGeometry relative="1" as="geometry">
            <Array as="points">
              <mxPoint x="210" y="670" />
              <mxPoint x="210" y="690" />
            </Array>
          </mxGeometry>
        </mxCell>
        <mxCell id="1YZEHhr3gAnOusNGVTl0-99" value="struct fs_struct" style="swimlane;fontStyle=0;childLayout=stackLayout;horizontal=1;startSize=30;horizontalStack=0;resizeParent=1;resizeParentMax=0;resizeLast=0;collapsible=1;marginBottom=0;whiteSpace=wrap;html=1;swimlaneLine=1;strokeColor=none;fillColor=default;fontSize=14;fontFamily=Times New Roman;" vertex="1" parent="1">
          <mxGeometry x="355" y="440" width="70" height="170" as="geometry" />
        </mxCell>
        <mxCell id="1YZEHhr3gAnOusNGVTl0-100" value="users" style="text;strokeColor=default;fillColor=none;align=center;verticalAlign=middle;spacingLeft=4;spacingRight=4;overflow=hidden;points=[[0,0.5],[1,0.5]];portConstraint=eastwest;rotatable=0;whiteSpace=wrap;html=1;fontSize=14;fontFamily=Times New Roman;" vertex="1" parent="1YZEHhr3gAnOusNGVTl0-99">
          <mxGeometry y="30" width="70" height="20" as="geometry" />
        </mxCell>
        <mxCell id="1YZEHhr3gAnOusNGVTl0-101" value="lock" style="text;strokeColor=default;fillColor=none;align=center;verticalAlign=middle;spacingLeft=4;spacingRight=4;overflow=hidden;points=[[0,0.5],[1,0.5]];portConstraint=eastwest;rotatable=0;whiteSpace=wrap;html=1;fontSize=14;fontFamily=Times New Roman;" vertex="1" parent="1YZEHhr3gAnOusNGVTl0-99">
          <mxGeometry y="50" width="70" height="20" as="geometry" />
        </mxCell>
        <mxCell id="1YZEHhr3gAnOusNGVTl0-102" value="seq" style="text;strokeColor=default;fillColor=none;align=center;verticalAlign=middle;spacingLeft=4;spacingRight=4;overflow=hidden;points=[[0,0.5],[1,0.5]];portConstraint=eastwest;rotatable=0;whiteSpace=wrap;html=1;fontSize=14;fontFamily=Times New Roman;" vertex="1" parent="1YZEHhr3gAnOusNGVTl0-99">
          <mxGeometry y="70" width="70" height="20" as="geometry" />
        </mxCell>
        <mxCell id="1YZEHhr3gAnOusNGVTl0-103" value="umask" style="text;strokeColor=default;fillColor=none;align=center;verticalAlign=middle;spacingLeft=4;spacingRight=4;overflow=hidden;points=[[0,0.5],[1,0.5]];portConstraint=eastwest;rotatable=0;whiteSpace=wrap;html=1;fontSize=14;fontFamily=Times New Roman;" vertex="1" parent="1YZEHhr3gAnOusNGVTl0-99">
          <mxGeometry y="90" width="70" height="20" as="geometry" />
        </mxCell>
        <mxCell id="1YZEHhr3gAnOusNGVTl0-104" value="in_exec" style="text;strokeColor=default;fillColor=none;align=center;verticalAlign=middle;spacingLeft=4;spacingRight=4;overflow=hidden;points=[[0,0.5],[1,0.5]];portConstraint=eastwest;rotatable=0;whiteSpace=wrap;html=1;fontSize=14;fontFamily=Times New Roman;" vertex="1" parent="1YZEHhr3gAnOusNGVTl0-99">
          <mxGeometry y="110" width="70" height="20" as="geometry" />
        </mxCell>
        <mxCell id="1YZEHhr3gAnOusNGVTl0-105" value="root" style="text;strokeColor=default;fillColor=none;align=center;verticalAlign=middle;spacingLeft=4;spacingRight=4;overflow=hidden;points=[[0,0.5],[1,0.5]];portConstraint=eastwest;rotatable=0;whiteSpace=wrap;html=1;fontSize=14;fontFamily=Times New Roman;" vertex="1" parent="1YZEHhr3gAnOusNGVTl0-99">
          <mxGeometry y="130" width="70" height="20" as="geometry" />
        </mxCell>
        <mxCell id="1YZEHhr3gAnOusNGVTl0-106" value="pwd" style="text;strokeColor=default;fillColor=none;align=center;verticalAlign=middle;spacingLeft=4;spacingRight=4;overflow=hidden;points=[[0,0.5],[1,0.5]];portConstraint=eastwest;rotatable=0;whiteSpace=wrap;html=1;fontSize=14;fontFamily=Times New Roman;" vertex="1" parent="1YZEHhr3gAnOusNGVTl0-99">
          <mxGeometry y="150" width="70" height="20" as="geometry" />
        </mxCell>
        <mxCell id="1YZEHhr3gAnOusNGVTl0-107" value="struct vfsmount" style="swimlane;fontStyle=0;childLayout=stackLayout;horizontal=1;startSize=30;horizontalStack=0;resizeParent=1;resizeParentMax=0;resizeLast=0;collapsible=1;marginBottom=0;whiteSpace=wrap;html=1;swimlaneLine=1;strokeColor=none;fillColor=default;fontSize=14;fontFamily=Times New Roman;" vertex="1" parent="1">
          <mxGeometry x="550" y="505" width="70" height="90" as="geometry" />
        </mxCell>
        <mxCell id="1YZEHhr3gAnOusNGVTl0-108" value="*mnt_root" style="text;strokeColor=default;fillColor=none;align=center;verticalAlign=middle;spacingLeft=4;spacingRight=4;overflow=hidden;points=[[0,0.5],[1,0.5]];portConstraint=eastwest;rotatable=0;whiteSpace=wrap;html=1;fontSize=14;fontFamily=Times New Roman;" vertex="1" parent="1YZEHhr3gAnOusNGVTl0-107">
          <mxGeometry y="30" width="70" height="20" as="geometry" />
        </mxCell>
        <mxCell id="1YZEHhr3gAnOusNGVTl0-109" value="*mnt_sb" style="text;strokeColor=default;fillColor=none;align=center;verticalAlign=middle;spacingLeft=4;spacingRight=4;overflow=hidden;points=[[0,0.5],[1,0.5]];portConstraint=eastwest;rotatable=0;whiteSpace=wrap;html=1;fontSize=14;fontFamily=Times New Roman;" vertex="1" parent="1YZEHhr3gAnOusNGVTl0-107">
          <mxGeometry y="50" width="70" height="20" as="geometry" />
        </mxCell>
        <mxCell id="1YZEHhr3gAnOusNGVTl0-110" value="..." style="text;strokeColor=default;fillColor=none;align=center;verticalAlign=middle;spacingLeft=4;spacingRight=4;overflow=hidden;points=[[0,0.5],[1,0.5]];portConstraint=eastwest;rotatable=0;whiteSpace=wrap;html=1;fontSize=14;fontFamily=Times New Roman;" vertex="1" parent="1YZEHhr3gAnOusNGVTl0-107">
          <mxGeometry y="70" width="70" height="20" as="geometry" />
        </mxCell>
        <mxCell id="1YZEHhr3gAnOusNGVTl0-111" style="edgeStyle=orthogonalEdgeStyle;rounded=0;orthogonalLoop=1;jettySize=auto;html=1;exitX=1;exitY=0.5;exitDx=0;exitDy=0;fontFamily=Times New Roman;fontSize=14;" edge="1" parent="1" source="1YZEHhr3gAnOusNGVTl0-11" target="1YZEHhr3gAnOusNGVTl0-14">
          <mxGeometry relative="1" as="geometry">
            <Array as="points">
              <mxPoint x="330" y="690" />
              <mxPoint x="330" y="660" />
            </Array>
          </mxGeometry>
        </mxCell>
        <mxCell id="1YZEHhr3gAnOusNGVTl0-112" style="edgeStyle=orthogonalEdgeStyle;rounded=0;orthogonalLoop=1;jettySize=auto;html=1;exitX=1;exitY=0.5;exitDx=0;exitDy=0;fontFamily=Times New Roman;fontSize=14;" edge="1" parent="1" source="1YZEHhr3gAnOusNGVTl0-15" target="1YZEHhr3gAnOusNGVTl0-40">
          <mxGeometry relative="1" as="geometry">
            <Array as="points">
              <mxPoint x="420" y="690" />
              <mxPoint x="420" y="720" />
            </Array>
          </mxGeometry>
        </mxCell>
        <mxCell id="1YZEHhr3gAnOusNGVTl0-114" style="edgeStyle=orthogonalEdgeStyle;rounded=0;orthogonalLoop=1;jettySize=auto;html=1;exitX=1;exitY=0.5;exitDx=0;exitDy=0;fontFamily=Times New Roman;fontSize=14;" edge="1" parent="1" source="1YZEHhr3gAnOusNGVTl0-4" target="1YZEHhr3gAnOusNGVTl0-6">
          <mxGeometry relative="1" as="geometry">
            <Array as="points">
              <mxPoint x="330" y="510" />
              <mxPoint x="330" y="550" />
              <mxPoint x="275" y="550" />
            </Array>
          </mxGeometry>
        </mxCell>
        <mxCell id="1YZEHhr3gAnOusNGVTl0-115" style="edgeStyle=orthogonalEdgeStyle;rounded=0;orthogonalLoop=1;jettySize=auto;html=1;exitX=1;exitY=0.5;exitDx=0;exitDy=0;entryX=0.009;entryY=-0.133;entryDx=0;entryDy=0;fontFamily=Times New Roman;fontSize=14;entryPerimeter=0;" edge="1" parent="1" source="1YZEHhr3gAnOusNGVTl0-14" target="1YZEHhr3gAnOusNGVTl0-24">
          <mxGeometry relative="1" as="geometry" />
        </mxCell>
        <mxCell id="1YZEHhr3gAnOusNGVTl0-116" style="edgeStyle=orthogonalEdgeStyle;rounded=0;orthogonalLoop=1;jettySize=auto;html=1;exitX=1;exitY=0.5;exitDx=0;exitDy=0;fontFamily=Times New Roman;fontSize=14;" edge="1" parent="1" source="1YZEHhr3gAnOusNGVTl0-44" target="1YZEHhr3gAnOusNGVTl0-32">
          <mxGeometry relative="1" as="geometry">
            <Array as="points">
              <mxPoint x="518" y="790" />
              <mxPoint x="518" y="780" />
            </Array>
          </mxGeometry>
        </mxCell>
        <mxCell id="1YZEHhr3gAnOusNGVTl0-118" style="edgeStyle=orthogonalEdgeStyle;rounded=0;orthogonalLoop=1;jettySize=auto;html=1;exitX=1;exitY=0.5;exitDx=0;exitDy=0;fontFamily=Times New Roman;fontSize=14;" edge="1" parent="1" source="1YZEHhr3gAnOusNGVTl0-109" target="1YZEHhr3gAnOusNGVTl0-32">
          <mxGeometry relative="1" as="geometry">
            <Array as="points">
              <mxPoint x="640" y="565" />
              <mxPoint x="640" y="780" />
            </Array>
          </mxGeometry>
        </mxCell>
        <mxCell id="1YZEHhr3gAnOusNGVTl0-119" style="edgeStyle=orthogonalEdgeStyle;rounded=0;orthogonalLoop=1;jettySize=auto;html=1;exitX=1;exitY=0.5;exitDx=0;exitDy=0;entryX=0;entryY=0.5;entryDx=0;entryDy=0;fontFamily=Times New Roman;fontSize=14;" edge="1" parent="1" source="1YZEHhr3gAnOusNGVTl0-24" target="1YZEHhr3gAnOusNGVTl0-108">
          <mxGeometry relative="1" as="geometry">
            <Array as="points">
              <mxPoint x="540" y="620" />
              <mxPoint x="540" y="545" />
            </Array>
          </mxGeometry>
        </mxCell>
        <mxCell id="1YZEHhr3gAnOusNGVTl0-120" style="edgeStyle=orthogonalEdgeStyle;rounded=0;orthogonalLoop=1;jettySize=auto;html=1;exitX=1;exitY=0.5;exitDx=0;exitDy=0;entryX=0;entryY=0.25;entryDx=0;entryDy=0;fontFamily=Times New Roman;fontSize=14;" edge="1" parent="1" source="1YZEHhr3gAnOusNGVTl0-25" target="1YZEHhr3gAnOusNGVTl0-26">
          <mxGeometry relative="1" as="geometry">
            <Array as="points">
              <mxPoint x="540" y="640" />
              <mxPoint x="540" y="658" />
            </Array>
          </mxGeometry>
        </mxCell>
        <mxCell id="Nd7iPpOX_ZR7a2tvfJ_M-1" value="int" style="swimlane;fontStyle=0;childLayout=stackLayout;horizontal=1;startSize=30;horizontalStack=0;resizeParent=1;resizeParentMax=0;resizeLast=0;collapsible=1;marginBottom=0;whiteSpace=wrap;html=1;swimlaneLine=1;strokeColor=none;fillColor=default;fontSize=14;fontFamily=Times New Roman;" vertex="1" parent="1">
          <mxGeometry x="145" y="690" width="50" height="50" as="geometry" />
        </mxCell>
        <mxCell id="Nd7iPpOX_ZR7a2tvfJ_M-2" value="fd2" style="text;strokeColor=default;fillColor=none;align=center;verticalAlign=middle;spacingLeft=4;spacingRight=4;overflow=hidden;points=[[0,0.5],[1,0.5]];portConstraint=eastwest;rotatable=0;whiteSpace=wrap;html=1;fontSize=14;fontFamily=Times New Roman;" vertex="1" parent="Nd7iPpOX_ZR7a2tvfJ_M-1">
          <mxGeometry y="30" width="50" height="20" as="geometry" />
        </mxCell>
        <mxCell id="Nd7iPpOX_ZR7a2tvfJ_M-3" style="edgeStyle=orthogonalEdgeStyle;rounded=0;orthogonalLoop=1;jettySize=auto;html=1;exitX=1;exitY=0.5;exitDx=0;exitDy=0;entryX=0;entryY=0.5;entryDx=0;entryDy=0;" edge="1" parent="1" source="Nd7iPpOX_ZR7a2tvfJ_M-2" target="1YZEHhr3gAnOusNGVTl0-121">
          <mxGeometry relative="1" as="geometry">
            <Array as="points">
              <mxPoint x="210" y="730" />
              <mxPoint x="210" y="710" />
            </Array>
          </mxGeometry>
        </mxCell>
        <mxCell id="X64DEyQKTbu0pxK87kBe-1" style="edgeStyle=orthogonalEdgeStyle;rounded=0;orthogonalLoop=1;jettySize=auto;html=1;exitX=1;exitY=0.5;exitDx=0;exitDy=0;" edge="1" parent="1" source="1YZEHhr3gAnOusNGVTl0-3" target="1YZEHhr3gAnOusNGVTl0-100">
          <mxGeometry relative="1" as="geometry">
            <Array as="points">
              <mxPoint x="332" y="490" />
              <mxPoint x="332" y="470" />
            </Array>
          </mxGeometry>
        </mxCell>
        <mxCell id="X64DEyQKTbu0pxK87kBe-2" style="edgeStyle=orthogonalEdgeStyle;rounded=0;orthogonalLoop=1;jettySize=auto;html=1;exitX=1;exitY=0.5;exitDx=0;exitDy=0;entryX=0.99;entryY=-0.017;entryDx=0;entryDy=0;entryPerimeter=0;" edge="1" parent="1" source="1YZEHhr3gAnOusNGVTl0-29" target="1YZEHhr3gAnOusNGVTl0-32">
          <mxGeometry relative="1" as="geometry">
            <Array as="points">
              <mxPoint x="640" y="710" />
              <mxPoint x="640" y="780" />
              <mxPoint x="609" y="780" />
            </Array>
          </mxGeometry>
        </mxCell>
      </root>
    </mxGraphModel>
  </diagram>
  <diagram name="3" id="s4vp73kclx0aihepyIDX">
    <mxGraphModel dx="1804" dy="657" grid="1" gridSize="10" guides="1" tooltips="1" connect="1" arrows="1" fold="1" page="1" pageScale="1" pageWidth="850" pageHeight="1100" math="0" shadow="0">
      <root>
        <mxCell id="8w9-IXUI6j-jav2uio0l-0" />
        <mxCell id="8w9-IXUI6j-jav2uio0l-1" parent="8w9-IXUI6j-jav2uio0l-0" />
        <mxCell id="k_tpril-N9oekNN_Ta6l-0" value="FILE *" style="swimlane;fontStyle=0;childLayout=stackLayout;horizontal=1;startSize=30;horizontalStack=0;resizeParent=1;resizeParentMax=0;resizeLast=0;collapsible=1;marginBottom=0;whiteSpace=wrap;html=1;swimlaneLine=1;strokeColor=none;fillColor=default;fontSize=14;fontFamily=Times New Roman;" vertex="1" parent="8w9-IXUI6j-jav2uio0l-1">
          <mxGeometry x="-100" y="470" width="70" height="50" as="geometry" />
        </mxCell>
        <mxCell id="k_tpril-N9oekNN_Ta6l-1" value="fs1" style="text;strokeColor=default;fillColor=none;align=center;verticalAlign=middle;spacingLeft=4;spacingRight=4;overflow=hidden;points=[[0,0.5],[1,0.5]];portConstraint=eastwest;rotatable=0;whiteSpace=wrap;html=1;fontSize=14;fontFamily=Times New Roman;" vertex="1" parent="k_tpril-N9oekNN_Ta6l-0">
          <mxGeometry y="30" width="70" height="20" as="geometry" />
        </mxCell>
        <mxCell id="k_tpril-N9oekNN_Ta6l-2" value="" style="endArrow=none;html=1;rounded=0;strokeWidth=2;fontSize=14;fontFamily=Times New Roman;" edge="1" parent="8w9-IXUI6j-jav2uio0l-1">
          <mxGeometry width="50" height="50" relative="1" as="geometry">
            <mxPoint x="220" y="440" as="sourcePoint" />
            <mxPoint x="220" y="880" as="targetPoint" />
            <Array as="points">
              <mxPoint x="220" y="660" />
            </Array>
          </mxGeometry>
        </mxCell>
        <mxCell id="k_tpril-N9oekNN_Ta6l-3" value="user mode" style="text;html=1;align=center;verticalAlign=middle;whiteSpace=wrap;rounded=0;fontSize=14;fontFamily=Times New Roman;" vertex="1" parent="8w9-IXUI6j-jav2uio0l-1">
          <mxGeometry x="130" y="850" width="80" height="30" as="geometry" />
        </mxCell>
        <mxCell id="k_tpril-N9oekNN_Ta6l-4" value="kernel mode" style="text;html=1;align=center;verticalAlign=middle;whiteSpace=wrap;rounded=0;fontSize=14;fontFamily=Times New Roman;" vertex="1" parent="8w9-IXUI6j-jav2uio0l-1">
          <mxGeometry x="230" y="850" width="80" height="30" as="geometry" />
        </mxCell>
        <mxCell id="k_tpril-N9oekNN_Ta6l-5" value="FILE *" style="swimlane;fontStyle=0;childLayout=stackLayout;horizontal=1;startSize=30;horizontalStack=0;resizeParent=1;resizeParentMax=0;resizeLast=0;collapsible=1;marginBottom=0;whiteSpace=wrap;html=1;swimlaneLine=1;strokeColor=none;fillColor=default;fontSize=14;fontFamily=Times New Roman;" vertex="1" parent="8w9-IXUI6j-jav2uio0l-1">
          <mxGeometry x="-100" y="645" width="70" height="50" as="geometry" />
        </mxCell>
        <mxCell id="k_tpril-N9oekNN_Ta6l-6" value="fs2" style="text;strokeColor=default;fillColor=none;align=center;verticalAlign=middle;spacingLeft=4;spacingRight=4;overflow=hidden;points=[[0,0.5],[1,0.5]];portConstraint=eastwest;rotatable=0;whiteSpace=wrap;html=1;fontSize=14;fontFamily=Times New Roman;" vertex="1" parent="k_tpril-N9oekNN_Ta6l-5">
          <mxGeometry y="30" width="70" height="20" as="geometry" />
        </mxCell>
        <mxCell id="k_tpril-N9oekNN_Ta6l-7" value="struct _IO_FILE" style="swimlane;fontStyle=0;childLayout=stackLayout;horizontal=1;startSize=30;horizontalStack=0;resizeParent=1;resizeParentMax=0;resizeLast=0;collapsible=1;marginBottom=0;whiteSpace=wrap;html=1;swimlaneLine=1;strokeColor=none;fillColor=default;fontSize=14;fontFamily=Times New Roman;" vertex="1" parent="8w9-IXUI6j-jav2uio0l-1">
          <mxGeometry x="-10" y="475" width="100" height="150" as="geometry" />
        </mxCell>
        <mxCell id="k_tpril-N9oekNN_Ta6l-8" value="..." style="text;strokeColor=default;fillColor=none;align=center;verticalAlign=middle;spacingLeft=4;spacingRight=4;overflow=hidden;points=[[0,0.5],[1,0.5]];portConstraint=eastwest;rotatable=0;whiteSpace=wrap;html=1;fontSize=14;fontFamily=Times New Roman;" vertex="1" parent="k_tpril-N9oekNN_Ta6l-7">
          <mxGeometry y="30" width="100" height="20" as="geometry" />
        </mxCell>
        <mxCell id="k_tpril-N9oekNN_Ta6l-9" value="_IO_read_base" style="text;strokeColor=default;fillColor=none;align=center;verticalAlign=middle;spacingLeft=4;spacingRight=4;overflow=hidden;points=[[0,0.5],[1,0.5]];portConstraint=eastwest;rotatable=0;whiteSpace=wrap;html=1;fontSize=14;fontFamily=Times New Roman;" vertex="1" parent="k_tpril-N9oekNN_Ta6l-7">
          <mxGeometry y="50" width="100" height="20" as="geometry" />
        </mxCell>
        <mxCell id="k_tpril-N9oekNN_Ta6l-10" value="_IO_read_ptr" style="text;strokeColor=default;fillColor=none;align=center;verticalAlign=middle;spacingLeft=4;spacingRight=4;overflow=hidden;points=[[0,0.5],[1,0.5]];portConstraint=eastwest;rotatable=0;whiteSpace=wrap;html=1;fontSize=14;fontFamily=Times New Roman;" vertex="1" parent="k_tpril-N9oekNN_Ta6l-7">
          <mxGeometry y="70" width="100" height="20" as="geometry" />
        </mxCell>
        <mxCell id="k_tpril-N9oekNN_Ta6l-11" value="_IO_read_end" style="text;strokeColor=default;fillColor=none;align=center;verticalAlign=middle;spacingLeft=4;spacingRight=4;overflow=hidden;points=[[0,0.5],[1,0.5]];portConstraint=eastwest;rotatable=0;whiteSpace=wrap;html=1;fontSize=14;fontFamily=Times New Roman;" vertex="1" parent="k_tpril-N9oekNN_Ta6l-7">
          <mxGeometry y="90" width="100" height="20" as="geometry" />
        </mxCell>
        <mxCell id="k_tpril-N9oekNN_Ta6l-12" value="_fileno" style="text;strokeColor=default;fillColor=none;align=center;verticalAlign=middle;spacingLeft=4;spacingRight=4;overflow=hidden;points=[[0,0.5],[1,0.5]];portConstraint=eastwest;rotatable=0;whiteSpace=wrap;html=1;fontSize=14;fontFamily=Times New Roman;" vertex="1" parent="k_tpril-N9oekNN_Ta6l-7">
          <mxGeometry y="110" width="100" height="20" as="geometry" />
        </mxCell>
        <mxCell id="k_tpril-N9oekNN_Ta6l-13" value="..." style="text;strokeColor=default;fillColor=none;align=center;verticalAlign=middle;spacingLeft=4;spacingRight=4;overflow=hidden;points=[[0,0.5],[1,0.5]];portConstraint=eastwest;rotatable=0;whiteSpace=wrap;html=1;fontSize=14;fontFamily=Times New Roman;" vertex="1" parent="k_tpril-N9oekNN_Ta6l-7">
          <mxGeometry y="130" width="100" height="20" as="geometry" />
        </mxCell>
        <mxCell id="k_tpril-N9oekNN_Ta6l-14" value="struct _IO_FILE" style="swimlane;fontStyle=0;childLayout=stackLayout;horizontal=1;startSize=30;horizontalStack=0;resizeParent=1;resizeParentMax=0;resizeLast=0;collapsible=1;marginBottom=0;whiteSpace=wrap;html=1;swimlaneLine=1;strokeColor=none;fillColor=default;fontSize=14;fontFamily=Times New Roman;" vertex="1" parent="8w9-IXUI6j-jav2uio0l-1">
          <mxGeometry x="-10" y="645" width="100" height="150" as="geometry" />
        </mxCell>
        <mxCell id="k_tpril-N9oekNN_Ta6l-15" value="..." style="text;strokeColor=default;fillColor=none;align=center;verticalAlign=middle;spacingLeft=4;spacingRight=4;overflow=hidden;points=[[0,0.5],[1,0.5]];portConstraint=eastwest;rotatable=0;whiteSpace=wrap;html=1;fontSize=14;fontFamily=Times New Roman;" vertex="1" parent="k_tpril-N9oekNN_Ta6l-14">
          <mxGeometry y="30" width="100" height="20" as="geometry" />
        </mxCell>
        <mxCell id="k_tpril-N9oekNN_Ta6l-16" value="_IO_read_base" style="text;strokeColor=default;fillColor=none;align=center;verticalAlign=middle;spacingLeft=4;spacingRight=4;overflow=hidden;points=[[0,0.5],[1,0.5]];portConstraint=eastwest;rotatable=0;whiteSpace=wrap;html=1;fontSize=14;fontFamily=Times New Roman;" vertex="1" parent="k_tpril-N9oekNN_Ta6l-14">
          <mxGeometry y="50" width="100" height="20" as="geometry" />
        </mxCell>
        <mxCell id="k_tpril-N9oekNN_Ta6l-17" value="_IO_read_ptr" style="text;strokeColor=default;fillColor=none;align=center;verticalAlign=middle;spacingLeft=4;spacingRight=4;overflow=hidden;points=[[0,0.5],[1,0.5]];portConstraint=eastwest;rotatable=0;whiteSpace=wrap;html=1;fontSize=14;fontFamily=Times New Roman;" vertex="1" parent="k_tpril-N9oekNN_Ta6l-14">
          <mxGeometry y="70" width="100" height="20" as="geometry" />
        </mxCell>
        <mxCell id="k_tpril-N9oekNN_Ta6l-18" value="_IO_read_end" style="text;strokeColor=default;fillColor=none;align=center;verticalAlign=middle;spacingLeft=4;spacingRight=4;overflow=hidden;points=[[0,0.5],[1,0.5]];portConstraint=eastwest;rotatable=0;whiteSpace=wrap;html=1;fontSize=14;fontFamily=Times New Roman;" vertex="1" parent="k_tpril-N9oekNN_Ta6l-14">
          <mxGeometry y="90" width="100" height="20" as="geometry" />
        </mxCell>
        <mxCell id="k_tpril-N9oekNN_Ta6l-19" value="_fileno" style="text;strokeColor=default;fillColor=none;align=center;verticalAlign=middle;spacingLeft=4;spacingRight=4;overflow=hidden;points=[[0,0.5],[1,0.5]];portConstraint=eastwest;rotatable=0;whiteSpace=wrap;html=1;fontSize=14;fontFamily=Times New Roman;" vertex="1" parent="k_tpril-N9oekNN_Ta6l-14">
          <mxGeometry y="110" width="100" height="20" as="geometry" />
        </mxCell>
        <mxCell id="k_tpril-N9oekNN_Ta6l-20" value="..." style="text;strokeColor=default;fillColor=none;align=center;verticalAlign=middle;spacingLeft=4;spacingRight=4;overflow=hidden;points=[[0,0.5],[1,0.5]];portConstraint=eastwest;rotatable=0;whiteSpace=wrap;html=1;fontSize=14;fontFamily=Times New Roman;" vertex="1" parent="k_tpril-N9oekNN_Ta6l-14">
          <mxGeometry y="130" width="100" height="20" as="geometry" />
        </mxCell>
        <mxCell id="k_tpril-N9oekNN_Ta6l-21" style="edgeStyle=orthogonalEdgeStyle;rounded=0;orthogonalLoop=1;jettySize=auto;html=1;exitX=1;exitY=0.5;exitDx=0;exitDy=0;fontSize=14;fontFamily=Times New Roman;" edge="1" parent="8w9-IXUI6j-jav2uio0l-1" source="k_tpril-N9oekNN_Ta6l-1" target="k_tpril-N9oekNN_Ta6l-7">
          <mxGeometry relative="1" as="geometry">
            <Array as="points">
              <mxPoint x="-30" y="505" />
            </Array>
          </mxGeometry>
        </mxCell>
        <mxCell id="k_tpril-N9oekNN_Ta6l-22" style="edgeStyle=orthogonalEdgeStyle;rounded=0;orthogonalLoop=1;jettySize=auto;html=1;exitX=1;exitY=0.5;exitDx=0;exitDy=0;fontSize=14;fontFamily=Times New Roman;" edge="1" parent="8w9-IXUI6j-jav2uio0l-1" source="k_tpril-N9oekNN_Ta6l-6" target="k_tpril-N9oekNN_Ta6l-14">
          <mxGeometry relative="1" as="geometry">
            <Array as="points">
              <mxPoint x="-30" y="675" />
            </Array>
          </mxGeometry>
        </mxCell>
        <mxCell id="k_tpril-N9oekNN_Ta6l-23" value="" style="group;fontSize=14;fontFamily=Times New Roman;" vertex="1" connectable="0" parent="8w9-IXUI6j-jav2uio0l-1">
          <mxGeometry x="90" y="475" width="100" height="60" as="geometry" />
        </mxCell>
        <mxCell id="k_tpril-N9oekNN_Ta6l-24" value="" style="group;fontSize=14;fontFamily=Times New Roman;" vertex="1" connectable="0" parent="k_tpril-N9oekNN_Ta6l-23">
          <mxGeometry width="100" height="40" as="geometry" />
        </mxCell>
        <mxCell id="k_tpril-N9oekNN_Ta6l-25" value="" style="group;fontSize=14;fontFamily=Times New Roman;" vertex="1" connectable="0" parent="k_tpril-N9oekNN_Ta6l-24">
          <mxGeometry x="10" y="20" width="85.71428571428571" height="20" as="geometry" />
        </mxCell>
        <mxCell id="k_tpril-N9oekNN_Ta6l-26" value="" style="text;strokeColor=default;fillColor=none;align=center;verticalAlign=middle;spacingLeft=4;spacingRight=4;overflow=hidden;points=[[0,0.5],[1,0.5]];portConstraint=eastwest;rotatable=0;whiteSpace=wrap;html=1;fontSize=14;fontFamily=Times New Roman;" vertex="1" parent="k_tpril-N9oekNN_Ta6l-25">
          <mxGeometry x="57.14285714285714" width="28.57142857142857" height="20" as="geometry" />
        </mxCell>
        <mxCell id="k_tpril-N9oekNN_Ta6l-27" value="" style="text;strokeColor=default;fillColor=none;align=center;verticalAlign=middle;spacingLeft=4;spacingRight=4;overflow=hidden;points=[[0,0.5],[1,0.5]];portConstraint=eastwest;rotatable=0;whiteSpace=wrap;html=1;fontSize=14;fontFamily=Times New Roman;" vertex="1" parent="k_tpril-N9oekNN_Ta6l-25">
          <mxGeometry x="28.57142857142857" width="28.57142857142857" height="20" as="geometry" />
        </mxCell>
        <mxCell id="k_tpril-N9oekNN_Ta6l-28" value="" style="text;strokeColor=default;fillColor=none;align=center;verticalAlign=middle;spacingLeft=4;spacingRight=4;overflow=hidden;points=[[0,0.5],[1,0.5]];portConstraint=eastwest;rotatable=0;whiteSpace=wrap;html=1;fontSize=14;fontFamily=Times New Roman;" vertex="1" parent="k_tpril-N9oekNN_Ta6l-25">
          <mxGeometry width="28.57142857142857" height="20" as="geometry" />
        </mxCell>
        <mxCell id="k_tpril-N9oekNN_Ta6l-29" value="char buff1[20]" style="text;strokeColor=none;fillColor=none;align=center;verticalAlign=middle;spacingLeft=4;spacingRight=4;overflow=hidden;points=[[0,0.5],[1,0.5]];portConstraint=eastwest;rotatable=0;whiteSpace=wrap;html=1;fontSize=14;fontFamily=Times New Roman;" vertex="1" parent="k_tpril-N9oekNN_Ta6l-24">
          <mxGeometry x="-2.5" width="105.36250000000001" height="20" as="geometry" />
        </mxCell>
        <mxCell id="k_tpril-N9oekNN_Ta6l-30" value="" style="group;fontSize=14;fontFamily=Times New Roman;" vertex="1" connectable="0" parent="k_tpril-N9oekNN_Ta6l-23">
          <mxGeometry x="10" y="40" width="85.71428571428571" height="20" as="geometry" />
        </mxCell>
        <mxCell id="k_tpril-N9oekNN_Ta6l-31" value="19" style="text;strokeColor=none;fillColor=none;align=center;verticalAlign=middle;spacingLeft=4;spacingRight=4;overflow=hidden;points=[[0,0.5],[1,0.5]];portConstraint=eastwest;rotatable=0;whiteSpace=wrap;html=1;fontSize=14;fontFamily=Times New Roman;" vertex="1" parent="k_tpril-N9oekNN_Ta6l-30">
          <mxGeometry x="57.14285714285714" width="28.57142857142857" height="20" as="geometry" />
        </mxCell>
        <mxCell id="k_tpril-N9oekNN_Ta6l-32" value="..." style="text;strokeColor=none;fillColor=none;align=center;verticalAlign=middle;spacingLeft=4;spacingRight=4;overflow=hidden;points=[[0,0.5],[1,0.5]];portConstraint=eastwest;rotatable=0;whiteSpace=wrap;html=1;fontSize=14;fontFamily=Times New Roman;" vertex="1" parent="k_tpril-N9oekNN_Ta6l-30">
          <mxGeometry x="28.57142857142857" width="28.57142857142857" height="20" as="geometry" />
        </mxCell>
        <mxCell id="k_tpril-N9oekNN_Ta6l-33" value="0" style="text;strokeColor=none;fillColor=none;align=center;verticalAlign=middle;spacingLeft=4;spacingRight=4;overflow=hidden;points=[[0,0.5],[1,0.5]];portConstraint=eastwest;rotatable=0;whiteSpace=wrap;html=1;fontSize=14;fontFamily=Times New Roman;" vertex="1" parent="k_tpril-N9oekNN_Ta6l-30">
          <mxGeometry width="28.57142857142857" height="20" as="geometry" />
        </mxCell>
        <mxCell id="k_tpril-N9oekNN_Ta6l-34" value="" style="group;fontSize=14;fontFamily=Times New Roman;" vertex="1" connectable="0" parent="8w9-IXUI6j-jav2uio0l-1">
          <mxGeometry x="90" y="635" width="100" height="60" as="geometry" />
        </mxCell>
        <mxCell id="k_tpril-N9oekNN_Ta6l-35" value="" style="group;fontSize=14;fontFamily=Times New Roman;" vertex="1" connectable="0" parent="k_tpril-N9oekNN_Ta6l-34">
          <mxGeometry width="100" height="40" as="geometry" />
        </mxCell>
        <mxCell id="k_tpril-N9oekNN_Ta6l-36" value="" style="group;fontSize=14;fontFamily=Times New Roman;" vertex="1" connectable="0" parent="k_tpril-N9oekNN_Ta6l-35">
          <mxGeometry x="10" y="20" width="85.71428571428571" height="20" as="geometry" />
        </mxCell>
        <mxCell id="k_tpril-N9oekNN_Ta6l-37" value="" style="text;strokeColor=default;fillColor=none;align=center;verticalAlign=middle;spacingLeft=4;spacingRight=4;overflow=hidden;points=[[0,0.5],[1,0.5]];portConstraint=eastwest;rotatable=0;whiteSpace=wrap;html=1;fontSize=14;fontFamily=Times New Roman;" vertex="1" parent="k_tpril-N9oekNN_Ta6l-36">
          <mxGeometry x="57.14285714285714" width="28.57142857142857" height="20" as="geometry" />
        </mxCell>
        <mxCell id="k_tpril-N9oekNN_Ta6l-38" value="" style="text;strokeColor=default;fillColor=none;align=center;verticalAlign=middle;spacingLeft=4;spacingRight=4;overflow=hidden;points=[[0,0.5],[1,0.5]];portConstraint=eastwest;rotatable=0;whiteSpace=wrap;html=1;fontSize=14;fontFamily=Times New Roman;" vertex="1" parent="k_tpril-N9oekNN_Ta6l-36">
          <mxGeometry x="28.57142857142857" width="28.57142857142857" height="20" as="geometry" />
        </mxCell>
        <mxCell id="k_tpril-N9oekNN_Ta6l-39" value="" style="text;strokeColor=default;fillColor=none;align=center;verticalAlign=middle;spacingLeft=4;spacingRight=4;overflow=hidden;points=[[0,0.5],[1,0.5]];portConstraint=eastwest;rotatable=0;whiteSpace=wrap;html=1;fontSize=14;fontFamily=Times New Roman;" vertex="1" parent="k_tpril-N9oekNN_Ta6l-36">
          <mxGeometry width="28.57142857142857" height="20" as="geometry" />
        </mxCell>
        <mxCell id="k_tpril-N9oekNN_Ta6l-40" value="char buff2[20]" style="text;strokeColor=none;fillColor=none;align=center;verticalAlign=middle;spacingLeft=4;spacingRight=4;overflow=hidden;points=[[0,0.5],[1,0.5]];portConstraint=eastwest;rotatable=0;whiteSpace=wrap;html=1;fontSize=14;fontFamily=Times New Roman;" vertex="1" parent="k_tpril-N9oekNN_Ta6l-35">
          <mxGeometry x="-2.5" width="105.36250000000001" height="20" as="geometry" />
        </mxCell>
        <mxCell id="k_tpril-N9oekNN_Ta6l-41" value="" style="group;fontSize=14;fontFamily=Times New Roman;" vertex="1" connectable="0" parent="k_tpril-N9oekNN_Ta6l-34">
          <mxGeometry x="10" y="40" width="85.71428571428571" height="20" as="geometry" />
        </mxCell>
        <mxCell id="k_tpril-N9oekNN_Ta6l-42" value="19" style="text;strokeColor=none;fillColor=none;align=center;verticalAlign=middle;spacingLeft=4;spacingRight=4;overflow=hidden;points=[[0,0.5],[1,0.5]];portConstraint=eastwest;rotatable=0;whiteSpace=wrap;html=1;fontSize=14;fontFamily=Times New Roman;" vertex="1" parent="k_tpril-N9oekNN_Ta6l-41">
          <mxGeometry x="57.14285714285714" width="28.57142857142857" height="20" as="geometry" />
        </mxCell>
        <mxCell id="k_tpril-N9oekNN_Ta6l-43" value="..." style="text;strokeColor=none;fillColor=none;align=center;verticalAlign=middle;spacingLeft=4;spacingRight=4;overflow=hidden;points=[[0,0.5],[1,0.5]];portConstraint=eastwest;rotatable=0;whiteSpace=wrap;html=1;fontSize=14;fontFamily=Times New Roman;" vertex="1" parent="k_tpril-N9oekNN_Ta6l-41">
          <mxGeometry x="28.57142857142857" width="28.57142857142857" height="20" as="geometry" />
        </mxCell>
        <mxCell id="k_tpril-N9oekNN_Ta6l-44" value="0" style="text;strokeColor=none;fillColor=none;align=center;verticalAlign=middle;spacingLeft=4;spacingRight=4;overflow=hidden;points=[[0,0.5],[1,0.5]];portConstraint=eastwest;rotatable=0;whiteSpace=wrap;html=1;fontSize=14;fontFamily=Times New Roman;" vertex="1" parent="k_tpril-N9oekNN_Ta6l-41">
          <mxGeometry width="28.57142857142857" height="20" as="geometry" />
        </mxCell>
        <mxCell id="k_tpril-N9oekNN_Ta6l-45" style="edgeStyle=orthogonalEdgeStyle;rounded=0;orthogonalLoop=1;jettySize=auto;html=1;exitX=1;exitY=0.5;exitDx=0;exitDy=0;fontSize=14;fontFamily=Times New Roman;" edge="1" parent="8w9-IXUI6j-jav2uio0l-1" source="k_tpril-N9oekNN_Ta6l-9" target="k_tpril-N9oekNN_Ta6l-28">
          <mxGeometry relative="1" as="geometry">
            <Array as="points">
              <mxPoint x="100" y="535" />
            </Array>
          </mxGeometry>
        </mxCell>
        <mxCell id="k_tpril-N9oekNN_Ta6l-46" style="edgeStyle=orthogonalEdgeStyle;rounded=0;orthogonalLoop=1;jettySize=auto;html=1;exitX=1;exitY=0.5;exitDx=0;exitDy=0;fontSize=14;fontFamily=Times New Roman;" edge="1" parent="8w9-IXUI6j-jav2uio0l-1" source="k_tpril-N9oekNN_Ta6l-10" target="k_tpril-N9oekNN_Ta6l-27">
          <mxGeometry relative="1" as="geometry">
            <Array as="points">
              <mxPoint x="130" y="555" />
            </Array>
          </mxGeometry>
        </mxCell>
        <mxCell id="k_tpril-N9oekNN_Ta6l-47" style="edgeStyle=orthogonalEdgeStyle;rounded=0;orthogonalLoop=1;jettySize=auto;html=1;fontSize=14;fontFamily=Times New Roman;" edge="1" parent="8w9-IXUI6j-jav2uio0l-1" source="k_tpril-N9oekNN_Ta6l-11" target="k_tpril-N9oekNN_Ta6l-26">
          <mxGeometry relative="1" as="geometry">
            <Array as="points">
              <mxPoint x="160" y="575" />
            </Array>
          </mxGeometry>
        </mxCell>
        <mxCell id="k_tpril-N9oekNN_Ta6l-48" style="edgeStyle=orthogonalEdgeStyle;rounded=0;orthogonalLoop=1;jettySize=auto;html=1;exitX=1;exitY=0.5;exitDx=0;exitDy=0;fontSize=14;fontFamily=Times New Roman;" edge="1" parent="8w9-IXUI6j-jav2uio0l-1" source="k_tpril-N9oekNN_Ta6l-16" target="k_tpril-N9oekNN_Ta6l-39">
          <mxGeometry relative="1" as="geometry">
            <Array as="points">
              <mxPoint x="100" y="705" />
            </Array>
          </mxGeometry>
        </mxCell>
        <mxCell id="k_tpril-N9oekNN_Ta6l-49" style="edgeStyle=orthogonalEdgeStyle;rounded=0;orthogonalLoop=1;jettySize=auto;html=1;exitX=1;exitY=0.5;exitDx=0;exitDy=0;fontSize=14;fontFamily=Times New Roman;" edge="1" parent="8w9-IXUI6j-jav2uio0l-1" source="k_tpril-N9oekNN_Ta6l-17" target="k_tpril-N9oekNN_Ta6l-38">
          <mxGeometry relative="1" as="geometry">
            <Array as="points">
              <mxPoint x="130" y="725" />
            </Array>
          </mxGeometry>
        </mxCell>
        <mxCell id="k_tpril-N9oekNN_Ta6l-50" style="edgeStyle=orthogonalEdgeStyle;rounded=0;orthogonalLoop=1;jettySize=auto;html=1;exitX=1;exitY=0.5;exitDx=0;exitDy=0;fontSize=14;fontFamily=Times New Roman;" edge="1" parent="8w9-IXUI6j-jav2uio0l-1" source="k_tpril-N9oekNN_Ta6l-18" target="k_tpril-N9oekNN_Ta6l-37">
          <mxGeometry relative="1" as="geometry">
            <Array as="points">
              <mxPoint x="160" y="745" />
            </Array>
          </mxGeometry>
        </mxCell>
        <mxCell id="k_tpril-N9oekNN_Ta6l-56" value="struct task_struct" style="swimlane;fontStyle=0;childLayout=stackLayout;horizontal=1;startSize=30;horizontalStack=0;resizeParent=1;resizeParentMax=0;resizeLast=0;collapsible=1;marginBottom=0;whiteSpace=wrap;html=1;swimlaneLine=1;strokeColor=none;fillColor=default;fontSize=14;fontFamily=Times New Roman;" vertex="1" parent="8w9-IXUI6j-jav2uio0l-1">
          <mxGeometry x="240" y="430" width="70" height="110" as="geometry">
            <mxRectangle x="130" y="310" width="130" height="30" as="alternateBounds" />
          </mxGeometry>
        </mxCell>
        <mxCell id="k_tpril-N9oekNN_Ta6l-57" value="..." style="text;strokeColor=default;fillColor=none;align=center;verticalAlign=middle;spacingLeft=4;spacingRight=4;overflow=hidden;points=[[0,0.5],[1,0.5]];portConstraint=eastwest;rotatable=0;whiteSpace=wrap;html=1;fontSize=14;fontFamily=Times New Roman;" vertex="1" parent="k_tpril-N9oekNN_Ta6l-56">
          <mxGeometry y="30" width="70" height="20" as="geometry" />
        </mxCell>
        <mxCell id="k_tpril-N9oekNN_Ta6l-58" value="*fs" style="text;strokeColor=default;fillColor=none;align=center;verticalAlign=middle;spacingLeft=4;spacingRight=4;overflow=hidden;points=[[0,0.5],[1,0.5]];portConstraint=eastwest;rotatable=0;whiteSpace=wrap;html=1;fontSize=14;fontFamily=Times New Roman;" vertex="1" parent="k_tpril-N9oekNN_Ta6l-56">
          <mxGeometry y="50" width="70" height="20" as="geometry" />
        </mxCell>
        <mxCell id="k_tpril-N9oekNN_Ta6l-59" value="*files" style="text;strokeColor=default;fillColor=none;align=center;verticalAlign=middle;spacingLeft=4;spacingRight=4;overflow=hidden;points=[[0,0.5],[1,0.5]];portConstraint=eastwest;rotatable=0;whiteSpace=wrap;html=1;fontSize=14;fontFamily=Times New Roman;" vertex="1" parent="k_tpril-N9oekNN_Ta6l-56">
          <mxGeometry y="70" width="70" height="20" as="geometry" />
        </mxCell>
        <mxCell id="k_tpril-N9oekNN_Ta6l-60" value="..." style="text;strokeColor=default;fillColor=none;align=center;verticalAlign=middle;spacingLeft=4;spacingRight=4;overflow=hidden;points=[[0,0.5],[1,0.5]];portConstraint=eastwest;rotatable=0;whiteSpace=wrap;html=1;fontSize=14;fontFamily=Times New Roman;" vertex="1" parent="k_tpril-N9oekNN_Ta6l-56">
          <mxGeometry y="90" width="70" height="20" as="geometry" />
        </mxCell>
        <mxCell id="k_tpril-N9oekNN_Ta6l-61" value="struct files_struct" style="swimlane;fontStyle=0;childLayout=stackLayout;horizontal=1;startSize=30;horizontalStack=0;resizeParent=1;resizeParentMax=0;resizeLast=0;collapsible=1;marginBottom=0;whiteSpace=wrap;html=1;swimlaneLine=1;strokeColor=none;fillColor=default;fontSize=14;fontFamily=Times New Roman;" vertex="1" parent="8w9-IXUI6j-jav2uio0l-1">
          <mxGeometry x="240" y="570" width="70" height="170" as="geometry" />
        </mxCell>
        <mxCell id="k_tpril-N9oekNN_Ta6l-62" value="..." style="text;strokeColor=default;fillColor=none;align=center;verticalAlign=middle;spacingLeft=4;spacingRight=4;overflow=hidden;points=[[0,0.5],[1,0.5]];portConstraint=eastwest;rotatable=0;whiteSpace=wrap;html=1;fontSize=14;fontFamily=Times New Roman;" vertex="1" parent="k_tpril-N9oekNN_Ta6l-61">
          <mxGeometry y="30" width="70" height="20" as="geometry" />
        </mxCell>
        <mxCell id="k_tpril-N9oekNN_Ta6l-63" value="fd[0]" style="text;strokeColor=default;fillColor=none;align=center;verticalAlign=middle;spacingLeft=4;spacingRight=4;overflow=hidden;points=[[0,0.5],[1,0.5]];portConstraint=eastwest;rotatable=0;whiteSpace=wrap;html=1;fontSize=14;fontFamily=Times New Roman;" vertex="1" parent="k_tpril-N9oekNN_Ta6l-61">
          <mxGeometry y="50" width="70" height="20" as="geometry" />
        </mxCell>
        <mxCell id="k_tpril-N9oekNN_Ta6l-64" value="fd[1&lt;span style=&quot;background-color: initial; font-size: 14px;&quot;&gt;]&lt;/span&gt;" style="text;strokeColor=default;fillColor=none;align=center;verticalAlign=middle;spacingLeft=4;spacingRight=4;overflow=hidden;points=[[0,0.5],[1,0.5]];portConstraint=eastwest;rotatable=0;whiteSpace=wrap;html=1;fontSize=14;fontFamily=Times New Roman;" vertex="1" parent="k_tpril-N9oekNN_Ta6l-61">
          <mxGeometry y="70" width="70" height="20" as="geometry" />
        </mxCell>
        <mxCell id="k_tpril-N9oekNN_Ta6l-65" value="fd[2]" style="text;strokeColor=default;fillColor=none;align=center;verticalAlign=middle;spacingLeft=4;spacingRight=4;overflow=hidden;points=[[0,0.5],[1,0.5]];portConstraint=eastwest;rotatable=0;whiteSpace=wrap;html=1;fontSize=14;fontFamily=Times New Roman;" vertex="1" parent="k_tpril-N9oekNN_Ta6l-61">
          <mxGeometry y="90" width="70" height="20" as="geometry" />
        </mxCell>
        <mxCell id="k_tpril-N9oekNN_Ta6l-66" value="fd[3]" style="text;strokeColor=default;fillColor=none;align=center;verticalAlign=middle;spacingLeft=4;spacingRight=4;overflow=hidden;points=[[0,0.5],[1,0.5]];portConstraint=eastwest;rotatable=0;whiteSpace=wrap;html=1;fontSize=14;fontFamily=Times New Roman;" vertex="1" parent="k_tpril-N9oekNN_Ta6l-61">
          <mxGeometry y="110" width="70" height="20" as="geometry" />
        </mxCell>
        <mxCell id="k_tpril-N9oekNN_Ta6l-121" value="fd[4]" style="text;strokeColor=default;fillColor=none;align=center;verticalAlign=middle;spacingLeft=4;spacingRight=4;overflow=hidden;points=[[0,0.5],[1,0.5]];portConstraint=eastwest;rotatable=0;whiteSpace=wrap;html=1;fontSize=14;fontFamily=Times New Roman;" vertex="1" parent="k_tpril-N9oekNN_Ta6l-61">
          <mxGeometry y="130" width="70" height="20" as="geometry" />
        </mxCell>
        <mxCell id="k_tpril-N9oekNN_Ta6l-67" value="..." style="text;strokeColor=default;fillColor=none;align=center;verticalAlign=middle;spacingLeft=4;spacingRight=4;overflow=hidden;points=[[0,0.5],[1,0.5]];portConstraint=eastwest;rotatable=0;whiteSpace=wrap;html=1;fontSize=14;fontFamily=Times New Roman;" vertex="1" parent="k_tpril-N9oekNN_Ta6l-61">
          <mxGeometry y="150" width="70" height="20" as="geometry" />
        </mxCell>
        <mxCell id="k_tpril-N9oekNN_Ta6l-68" value="struct file" style="swimlane;fontStyle=0;childLayout=stackLayout;horizontal=1;startSize=20;horizontalStack=0;resizeParent=1;resizeParentMax=0;resizeLast=0;collapsible=1;marginBottom=0;whiteSpace=wrap;html=1;swimlaneLine=1;strokeColor=none;fillColor=default;fontSize=14;fontFamily=Times New Roman;" vertex="1" parent="8w9-IXUI6j-jav2uio0l-1">
          <mxGeometry x="340" y="640" width="70" height="160" as="geometry" />
        </mxCell>
        <mxCell id="k_tpril-N9oekNN_Ta6l-69" value="f_path" style="text;strokeColor=default;fillColor=none;align=center;verticalAlign=middle;spacingLeft=4;spacingRight=4;overflow=hidden;points=[[0,0.5],[1,0.5]];portConstraint=eastwest;rotatable=0;whiteSpace=wrap;html=1;fontSize=14;fontFamily=Times New Roman;" vertex="1" parent="k_tpril-N9oekNN_Ta6l-68">
          <mxGeometry y="20" width="70" height="20" as="geometry" />
        </mxCell>
        <mxCell id="k_tpril-N9oekNN_Ta6l-70" value="&lt;div style=&quot;color: rgb(59, 59, 59); background-color: rgb(255, 255, 255); font-size: 14px; line-height: 19px; white-space: pre;&quot;&gt;&lt;span style=&quot;color: rgb(0, 0, 0); font-size: 14px;&quot;&gt;f_inode&lt;/span&gt;&lt;/div&gt;" style="text;strokeColor=default;fillColor=none;align=center;verticalAlign=middle;spacingLeft=4;spacingRight=4;overflow=hidden;points=[[0,0.5],[1,0.5]];portConstraint=eastwest;rotatable=0;whiteSpace=wrap;html=1;fontSize=14;fontFamily=Times New Roman;" vertex="1" parent="k_tpril-N9oekNN_Ta6l-68">
          <mxGeometry y="40" width="70" height="20" as="geometry" />
        </mxCell>
        <mxCell id="k_tpril-N9oekNN_Ta6l-71" value="*f_op" style="text;strokeColor=default;fillColor=none;align=center;verticalAlign=middle;spacingLeft=4;spacingRight=4;overflow=hidden;points=[[0,0.5],[1,0.5]];portConstraint=eastwest;rotatable=0;whiteSpace=wrap;html=1;fontSize=14;fontFamily=Times New Roman;" vertex="1" parent="k_tpril-N9oekNN_Ta6l-68">
          <mxGeometry y="60" width="70" height="20" as="geometry" />
        </mxCell>
        <mxCell id="k_tpril-N9oekNN_Ta6l-72" value="&lt;div style=&quot;color: rgb(59, 59, 59); background-color: rgb(255, 255, 255); font-size: 14px; line-height: 19px; white-space: pre;&quot;&gt;&lt;span style=&quot;color: rgb(0, 0, 0); font-size: 14px;&quot;&gt;f_count&lt;/span&gt;&lt;/div&gt;" style="text;strokeColor=default;fillColor=none;align=center;verticalAlign=middle;spacingLeft=4;spacingRight=4;overflow=hidden;points=[[0,0.5],[1,0.5]];portConstraint=eastwest;rotatable=0;whiteSpace=wrap;html=1;fontSize=14;fontFamily=Times New Roman;" vertex="1" parent="k_tpril-N9oekNN_Ta6l-68">
          <mxGeometry y="80" width="70" height="20" as="geometry" />
        </mxCell>
        <mxCell id="k_tpril-N9oekNN_Ta6l-73" value="f_flags" style="text;strokeColor=default;fillColor=none;align=center;verticalAlign=middle;spacingLeft=4;spacingRight=4;overflow=hidden;points=[[0,0.5],[1,0.5]];portConstraint=eastwest;rotatable=0;whiteSpace=wrap;html=1;fontSize=14;fontFamily=Times New Roman;" vertex="1" parent="k_tpril-N9oekNN_Ta6l-68">
          <mxGeometry y="100" width="70" height="20" as="geometry" />
        </mxCell>
        <mxCell id="k_tpril-N9oekNN_Ta6l-74" value="&lt;div style=&quot;color: rgb(59, 59, 59); background-color: rgb(255, 255, 255); font-size: 14px; line-height: 19px; white-space: pre;&quot;&gt;&lt;span style=&quot;color: rgb(0, 0, 0); font-size: 14px;&quot;&gt;f_mode&lt;/span&gt;&lt;/div&gt;" style="text;strokeColor=default;fillColor=none;align=center;verticalAlign=middle;spacingLeft=4;spacingRight=4;overflow=hidden;points=[[0,0.5],[1,0.5]];portConstraint=eastwest;rotatable=0;whiteSpace=wrap;html=1;fontSize=14;fontFamily=Times New Roman;" vertex="1" parent="k_tpril-N9oekNN_Ta6l-68">
          <mxGeometry y="120" width="70" height="20" as="geometry" />
        </mxCell>
        <mxCell id="k_tpril-N9oekNN_Ta6l-75" value="&lt;div style=&quot;color: rgb(59, 59, 59); background-color: rgb(255, 255, 255); font-size: 14px; line-height: 19px; white-space: pre;&quot;&gt;&lt;span style=&quot;color: rgb(0, 0, 0); font-size: 14px;&quot;&gt;f_pos&lt;/span&gt;&lt;/div&gt;" style="text;strokeColor=default;fillColor=none;align=center;verticalAlign=middle;spacingLeft=4;spacingRight=4;overflow=hidden;points=[[0,0.5],[1,0.5]];portConstraint=eastwest;rotatable=0;whiteSpace=wrap;html=1;fontSize=14;fontFamily=Times New Roman;" vertex="1" parent="k_tpril-N9oekNN_Ta6l-68">
          <mxGeometry y="140" width="70" height="20" as="geometry" />
        </mxCell>
        <mxCell id="k_tpril-N9oekNN_Ta6l-76" value="struct path" style="swimlane;fontStyle=0;childLayout=stackLayout;horizontal=1;startSize=30;horizontalStack=0;resizeParent=1;resizeParentMax=0;resizeLast=0;collapsible=1;marginBottom=0;whiteSpace=wrap;html=1;swimlaneLine=1;strokeColor=none;fillColor=default;fontSize=14;fontFamily=Times New Roman;" vertex="1" parent="8w9-IXUI6j-jav2uio0l-1">
          <mxGeometry x="460" y="580" width="70" height="70" as="geometry" />
        </mxCell>
        <mxCell id="k_tpril-N9oekNN_Ta6l-77" value="*mnt" style="text;strokeColor=default;fillColor=none;align=center;verticalAlign=middle;spacingLeft=4;spacingRight=4;overflow=hidden;points=[[0,0.5],[1,0.5]];portConstraint=eastwest;rotatable=0;whiteSpace=wrap;html=1;fontSize=14;fontFamily=Times New Roman;" vertex="1" parent="k_tpril-N9oekNN_Ta6l-76">
          <mxGeometry y="30" width="70" height="20" as="geometry" />
        </mxCell>
        <mxCell id="k_tpril-N9oekNN_Ta6l-78" value="*dentry" style="text;strokeColor=default;fillColor=none;align=center;verticalAlign=middle;spacingLeft=4;spacingRight=4;overflow=hidden;points=[[0,0.5],[1,0.5]];portConstraint=eastwest;rotatable=0;whiteSpace=wrap;html=1;fontSize=14;fontFamily=Times New Roman;" vertex="1" parent="k_tpril-N9oekNN_Ta6l-76">
          <mxGeometry y="50" width="70" height="20" as="geometry" />
        </mxCell>
        <mxCell id="k_tpril-N9oekNN_Ta6l-79" value="struct dentry &quot;alphabet.txt&quot;" style="swimlane;fontStyle=0;childLayout=stackLayout;horizontal=1;startSize=30;horizontalStack=0;resizeParent=1;resizeParentMax=0;resizeLast=0;collapsible=1;marginBottom=0;whiteSpace=wrap;html=1;swimlaneLine=1;strokeColor=none;fillColor=default;fontSize=14;fontFamily=Times New Roman;" vertex="1" parent="8w9-IXUI6j-jav2uio0l-1">
          <mxGeometry x="550" y="630" width="70" height="110" as="geometry" />
        </mxCell>
        <mxCell id="k_tpril-N9oekNN_Ta6l-80" value="..." style="text;strokeColor=default;fillColor=none;align=center;verticalAlign=middle;spacingLeft=4;spacingRight=4;overflow=hidden;points=[[0,0.5],[1,0.5]];portConstraint=eastwest;rotatable=0;whiteSpace=wrap;html=1;fontSize=14;fontFamily=Times New Roman;" vertex="1" parent="k_tpril-N9oekNN_Ta6l-79">
          <mxGeometry y="30" width="70" height="20" as="geometry" />
        </mxCell>
        <mxCell id="k_tpril-N9oekNN_Ta6l-81" value="*d_op" style="text;strokeColor=default;fillColor=none;align=center;verticalAlign=middle;spacingLeft=4;spacingRight=4;overflow=hidden;points=[[0,0.5],[1,0.5]];portConstraint=eastwest;rotatable=0;whiteSpace=wrap;html=1;fontSize=14;fontFamily=Times New Roman;" vertex="1" parent="k_tpril-N9oekNN_Ta6l-79">
          <mxGeometry y="50" width="70" height="20" as="geometry" />
        </mxCell>
        <mxCell id="k_tpril-N9oekNN_Ta6l-82" value="*d_sb" style="text;strokeColor=default;fillColor=none;align=center;verticalAlign=middle;spacingLeft=4;spacingRight=4;overflow=hidden;points=[[0,0.5],[1,0.5]];portConstraint=eastwest;rotatable=0;whiteSpace=wrap;html=1;fontSize=14;fontFamily=Times New Roman;" vertex="1" parent="k_tpril-N9oekNN_Ta6l-79">
          <mxGeometry y="70" width="70" height="20" as="geometry" />
        </mxCell>
        <mxCell id="k_tpril-N9oekNN_Ta6l-83" value="..." style="text;strokeColor=default;fillColor=none;align=center;verticalAlign=middle;spacingLeft=4;spacingRight=4;overflow=hidden;points=[[0,0.5],[1,0.5]];portConstraint=eastwest;rotatable=0;whiteSpace=wrap;html=1;fontSize=14;fontFamily=Times New Roman;" vertex="1" parent="k_tpril-N9oekNN_Ta6l-79">
          <mxGeometry y="90" width="70" height="20" as="geometry" />
        </mxCell>
        <mxCell id="k_tpril-N9oekNN_Ta6l-84" value="struct super_&lt;span style=&quot;background-color: initial; font-size: 14px;&quot;&gt;block&lt;/span&gt;" style="swimlane;fontStyle=0;childLayout=stackLayout;horizontal=1;startSize=30;horizontalStack=0;resizeParent=1;resizeParentMax=0;resizeLast=0;collapsible=1;marginBottom=0;whiteSpace=wrap;html=1;swimlaneLine=1;strokeColor=none;fillColor=default;fontSize=14;fontFamily=Times New Roman;" vertex="1" parent="8w9-IXUI6j-jav2uio0l-1">
          <mxGeometry x="540" y="750" width="70" height="130" as="geometry" />
        </mxCell>
        <mxCell id="k_tpril-N9oekNN_Ta6l-85" value="..." style="text;strokeColor=default;fillColor=none;align=center;verticalAlign=middle;spacingLeft=4;spacingRight=4;overflow=hidden;points=[[0,0.5],[1,0.5]];portConstraint=eastwest;rotatable=0;whiteSpace=wrap;html=1;fontSize=14;fontFamily=Times New Roman;" vertex="1" parent="k_tpril-N9oekNN_Ta6l-84">
          <mxGeometry y="30" width="70" height="20" as="geometry" />
        </mxCell>
        <mxCell id="k_tpril-N9oekNN_Ta6l-86" value="..." style="text;strokeColor=default;fillColor=none;align=center;verticalAlign=middle;spacingLeft=4;spacingRight=4;overflow=hidden;points=[[0,0.5],[1,0.5]];portConstraint=eastwest;rotatable=0;whiteSpace=wrap;html=1;fontSize=14;fontFamily=Times New Roman;" vertex="1" parent="k_tpril-N9oekNN_Ta6l-84">
          <mxGeometry y="50" width="70" height="20" as="geometry" />
        </mxCell>
        <mxCell id="k_tpril-N9oekNN_Ta6l-87" value="*s_op" style="text;strokeColor=default;fillColor=none;align=center;verticalAlign=middle;spacingLeft=4;spacingRight=4;overflow=hidden;points=[[0,0.5],[1,0.5]];portConstraint=eastwest;rotatable=0;whiteSpace=wrap;html=1;fontSize=14;fontFamily=Times New Roman;" vertex="1" parent="k_tpril-N9oekNN_Ta6l-84">
          <mxGeometry y="70" width="70" height="20" as="geometry" />
        </mxCell>
        <mxCell id="k_tpril-N9oekNN_Ta6l-88" value="*s_root" style="text;strokeColor=default;fillColor=none;align=center;verticalAlign=middle;spacingLeft=4;spacingRight=4;overflow=hidden;points=[[0,0.5],[1,0.5]];portConstraint=eastwest;rotatable=0;whiteSpace=wrap;html=1;fontSize=14;fontFamily=Times New Roman;" vertex="1" parent="k_tpril-N9oekNN_Ta6l-84">
          <mxGeometry y="90" width="70" height="20" as="geometry" />
        </mxCell>
        <mxCell id="k_tpril-N9oekNN_Ta6l-89" value="s_inodes" style="text;strokeColor=default;fillColor=none;align=center;verticalAlign=middle;spacingLeft=4;spacingRight=4;overflow=hidden;points=[[0,0.5],[1,0.5]];portConstraint=eastwest;rotatable=0;whiteSpace=wrap;html=1;fontSize=14;fontFamily=Times New Roman;" vertex="1" parent="k_tpril-N9oekNN_Ta6l-84">
          <mxGeometry y="110" width="70" height="20" as="geometry" />
        </mxCell>
        <mxCell id="k_tpril-N9oekNN_Ta6l-90" value="kernel mode" style="text;html=1;align=center;verticalAlign=middle;whiteSpace=wrap;rounded=0;fontSize=14;fontFamily=Times New Roman;" vertex="1" parent="8w9-IXUI6j-jav2uio0l-1">
          <mxGeometry x="230" y="850" width="80" height="30" as="geometry" />
        </mxCell>
        <mxCell id="k_tpril-N9oekNN_Ta6l-91" value="struct inode" style="swimlane;fontStyle=0;childLayout=stackLayout;horizontal=1;startSize=30;horizontalStack=0;resizeParent=1;resizeParentMax=0;resizeLast=0;collapsible=1;marginBottom=0;whiteSpace=wrap;html=1;swimlaneLine=1;strokeColor=none;fillColor=default;fontSize=14;fontFamily=Times New Roman;" vertex="1" parent="8w9-IXUI6j-jav2uio0l-1">
          <mxGeometry x="425" y="690" width="70" height="170" as="geometry" />
        </mxCell>
        <mxCell id="k_tpril-N9oekNN_Ta6l-92" value="i_mode" style="text;strokeColor=default;fillColor=none;align=center;verticalAlign=middle;spacingLeft=4;spacingRight=4;overflow=hidden;points=[[0,0.5],[1,0.5]];portConstraint=eastwest;rotatable=0;whiteSpace=wrap;html=1;fontSize=14;fontFamily=Times New Roman;" vertex="1" parent="k_tpril-N9oekNN_Ta6l-91">
          <mxGeometry y="30" width="70" height="20" as="geometry" />
        </mxCell>
        <mxCell id="k_tpril-N9oekNN_Ta6l-93" value="i_flags" style="text;strokeColor=default;fillColor=none;align=center;verticalAlign=middle;spacingLeft=4;spacingRight=4;overflow=hidden;points=[[0,0.5],[1,0.5]];portConstraint=eastwest;rotatable=0;whiteSpace=wrap;html=1;fontSize=14;fontFamily=Times New Roman;" vertex="1" parent="k_tpril-N9oekNN_Ta6l-91">
          <mxGeometry y="50" width="70" height="20" as="geometry" />
        </mxCell>
        <mxCell id="k_tpril-N9oekNN_Ta6l-94" value="*i_op" style="text;strokeColor=default;fillColor=none;align=center;verticalAlign=middle;spacingLeft=4;spacingRight=4;overflow=hidden;points=[[0,0.5],[1,0.5]];portConstraint=eastwest;rotatable=0;whiteSpace=wrap;html=1;fontSize=14;fontFamily=Times New Roman;" vertex="1" parent="k_tpril-N9oekNN_Ta6l-91">
          <mxGeometry y="70" width="70" height="20" as="geometry" />
        </mxCell>
        <mxCell id="k_tpril-N9oekNN_Ta6l-95" value="*i_sb" style="text;strokeColor=default;fillColor=none;align=center;verticalAlign=middle;spacingLeft=4;spacingRight=4;overflow=hidden;points=[[0,0.5],[1,0.5]];portConstraint=eastwest;rotatable=0;whiteSpace=wrap;html=1;fontSize=14;fontFamily=Times New Roman;" vertex="1" parent="k_tpril-N9oekNN_Ta6l-91">
          <mxGeometry y="90" width="70" height="20" as="geometry" />
        </mxCell>
        <mxCell id="k_tpril-N9oekNN_Ta6l-96" value="*i_mapping" style="text;strokeColor=default;fillColor=none;align=center;verticalAlign=middle;spacingLeft=4;spacingRight=4;overflow=hidden;points=[[0,0.5],[1,0.5]];portConstraint=eastwest;rotatable=0;whiteSpace=wrap;html=1;fontSize=14;fontFamily=Times New Roman;" vertex="1" parent="k_tpril-N9oekNN_Ta6l-91">
          <mxGeometry y="110" width="70" height="20" as="geometry" />
        </mxCell>
        <mxCell id="k_tpril-N9oekNN_Ta6l-97" value="*i_sb_list" style="text;strokeColor=default;fillColor=none;align=center;verticalAlign=middle;spacingLeft=4;spacingRight=4;overflow=hidden;points=[[0,0.5],[1,0.5]];portConstraint=eastwest;rotatable=0;whiteSpace=wrap;html=1;fontSize=14;fontFamily=Times New Roman;" vertex="1" parent="k_tpril-N9oekNN_Ta6l-91">
          <mxGeometry y="130" width="70" height="20" as="geometry" />
        </mxCell>
        <mxCell id="k_tpril-N9oekNN_Ta6l-98" value="..." style="text;strokeColor=default;fillColor=none;align=center;verticalAlign=middle;spacingLeft=4;spacingRight=4;overflow=hidden;points=[[0,0.5],[1,0.5]];portConstraint=eastwest;rotatable=0;whiteSpace=wrap;html=1;fontSize=14;fontFamily=Times New Roman;" vertex="1" parent="k_tpril-N9oekNN_Ta6l-91">
          <mxGeometry y="150" width="70" height="20" as="geometry" />
        </mxCell>
        <mxCell id="k_tpril-N9oekNN_Ta6l-99" value="struct fs_struct" style="swimlane;fontStyle=0;childLayout=stackLayout;horizontal=1;startSize=30;horizontalStack=0;resizeParent=1;resizeParentMax=0;resizeLast=0;collapsible=1;marginBottom=0;whiteSpace=wrap;html=1;swimlaneLine=1;strokeColor=none;fillColor=default;fontSize=14;fontFamily=Times New Roman;" vertex="1" parent="8w9-IXUI6j-jav2uio0l-1">
          <mxGeometry x="355" y="440" width="70" height="170" as="geometry" />
        </mxCell>
        <mxCell id="k_tpril-N9oekNN_Ta6l-100" value="users" style="text;strokeColor=default;fillColor=none;align=center;verticalAlign=middle;spacingLeft=4;spacingRight=4;overflow=hidden;points=[[0,0.5],[1,0.5]];portConstraint=eastwest;rotatable=0;whiteSpace=wrap;html=1;fontSize=14;fontFamily=Times New Roman;" vertex="1" parent="k_tpril-N9oekNN_Ta6l-99">
          <mxGeometry y="30" width="70" height="20" as="geometry" />
        </mxCell>
        <mxCell id="k_tpril-N9oekNN_Ta6l-101" value="lock" style="text;strokeColor=default;fillColor=none;align=center;verticalAlign=middle;spacingLeft=4;spacingRight=4;overflow=hidden;points=[[0,0.5],[1,0.5]];portConstraint=eastwest;rotatable=0;whiteSpace=wrap;html=1;fontSize=14;fontFamily=Times New Roman;" vertex="1" parent="k_tpril-N9oekNN_Ta6l-99">
          <mxGeometry y="50" width="70" height="20" as="geometry" />
        </mxCell>
        <mxCell id="k_tpril-N9oekNN_Ta6l-102" value="seq" style="text;strokeColor=default;fillColor=none;align=center;verticalAlign=middle;spacingLeft=4;spacingRight=4;overflow=hidden;points=[[0,0.5],[1,0.5]];portConstraint=eastwest;rotatable=0;whiteSpace=wrap;html=1;fontSize=14;fontFamily=Times New Roman;" vertex="1" parent="k_tpril-N9oekNN_Ta6l-99">
          <mxGeometry y="70" width="70" height="20" as="geometry" />
        </mxCell>
        <mxCell id="k_tpril-N9oekNN_Ta6l-103" value="umask" style="text;strokeColor=default;fillColor=none;align=center;verticalAlign=middle;spacingLeft=4;spacingRight=4;overflow=hidden;points=[[0,0.5],[1,0.5]];portConstraint=eastwest;rotatable=0;whiteSpace=wrap;html=1;fontSize=14;fontFamily=Times New Roman;" vertex="1" parent="k_tpril-N9oekNN_Ta6l-99">
          <mxGeometry y="90" width="70" height="20" as="geometry" />
        </mxCell>
        <mxCell id="k_tpril-N9oekNN_Ta6l-104" value="in_exec" style="text;strokeColor=default;fillColor=none;align=center;verticalAlign=middle;spacingLeft=4;spacingRight=4;overflow=hidden;points=[[0,0.5],[1,0.5]];portConstraint=eastwest;rotatable=0;whiteSpace=wrap;html=1;fontSize=14;fontFamily=Times New Roman;" vertex="1" parent="k_tpril-N9oekNN_Ta6l-99">
          <mxGeometry y="110" width="70" height="20" as="geometry" />
        </mxCell>
        <mxCell id="k_tpril-N9oekNN_Ta6l-105" value="root" style="text;strokeColor=default;fillColor=none;align=center;verticalAlign=middle;spacingLeft=4;spacingRight=4;overflow=hidden;points=[[0,0.5],[1,0.5]];portConstraint=eastwest;rotatable=0;whiteSpace=wrap;html=1;fontSize=14;fontFamily=Times New Roman;" vertex="1" parent="k_tpril-N9oekNN_Ta6l-99">
          <mxGeometry y="130" width="70" height="20" as="geometry" />
        </mxCell>
        <mxCell id="k_tpril-N9oekNN_Ta6l-106" value="pwd" style="text;strokeColor=default;fillColor=none;align=center;verticalAlign=middle;spacingLeft=4;spacingRight=4;overflow=hidden;points=[[0,0.5],[1,0.5]];portConstraint=eastwest;rotatable=0;whiteSpace=wrap;html=1;fontSize=14;fontFamily=Times New Roman;" vertex="1" parent="k_tpril-N9oekNN_Ta6l-99">
          <mxGeometry y="150" width="70" height="20" as="geometry" />
        </mxCell>
        <mxCell id="k_tpril-N9oekNN_Ta6l-107" value="struct vfsmount" style="swimlane;fontStyle=0;childLayout=stackLayout;horizontal=1;startSize=30;horizontalStack=0;resizeParent=1;resizeParentMax=0;resizeLast=0;collapsible=1;marginBottom=0;whiteSpace=wrap;html=1;swimlaneLine=1;strokeColor=none;fillColor=default;fontSize=14;fontFamily=Times New Roman;" vertex="1" parent="8w9-IXUI6j-jav2uio0l-1">
          <mxGeometry x="550" y="505" width="70" height="90" as="geometry" />
        </mxCell>
        <mxCell id="k_tpril-N9oekNN_Ta6l-108" value="*mnt_root" style="text;strokeColor=default;fillColor=none;align=center;verticalAlign=middle;spacingLeft=4;spacingRight=4;overflow=hidden;points=[[0,0.5],[1,0.5]];portConstraint=eastwest;rotatable=0;whiteSpace=wrap;html=1;fontSize=14;fontFamily=Times New Roman;" vertex="1" parent="k_tpril-N9oekNN_Ta6l-107">
          <mxGeometry y="30" width="70" height="20" as="geometry" />
        </mxCell>
        <mxCell id="k_tpril-N9oekNN_Ta6l-109" value="*mnt_sb" style="text;strokeColor=default;fillColor=none;align=center;verticalAlign=middle;spacingLeft=4;spacingRight=4;overflow=hidden;points=[[0,0.5],[1,0.5]];portConstraint=eastwest;rotatable=0;whiteSpace=wrap;html=1;fontSize=14;fontFamily=Times New Roman;" vertex="1" parent="k_tpril-N9oekNN_Ta6l-107">
          <mxGeometry y="50" width="70" height="20" as="geometry" />
        </mxCell>
        <mxCell id="k_tpril-N9oekNN_Ta6l-110" value="..." style="text;strokeColor=default;fillColor=none;align=center;verticalAlign=middle;spacingLeft=4;spacingRight=4;overflow=hidden;points=[[0,0.5],[1,0.5]];portConstraint=eastwest;rotatable=0;whiteSpace=wrap;html=1;fontSize=14;fontFamily=Times New Roman;" vertex="1" parent="k_tpril-N9oekNN_Ta6l-107">
          <mxGeometry y="70" width="70" height="20" as="geometry" />
        </mxCell>
        <mxCell id="k_tpril-N9oekNN_Ta6l-111" style="edgeStyle=orthogonalEdgeStyle;rounded=0;orthogonalLoop=1;jettySize=auto;html=1;exitX=1;exitY=0.5;exitDx=0;exitDy=0;fontFamily=Times New Roman;fontSize=14;" edge="1" parent="8w9-IXUI6j-jav2uio0l-1" source="k_tpril-N9oekNN_Ta6l-66" target="k_tpril-N9oekNN_Ta6l-69">
          <mxGeometry relative="1" as="geometry">
            <Array as="points">
              <mxPoint x="330" y="690" />
              <mxPoint x="330" y="660" />
            </Array>
          </mxGeometry>
        </mxCell>
        <mxCell id="k_tpril-N9oekNN_Ta6l-112" style="edgeStyle=orthogonalEdgeStyle;rounded=0;orthogonalLoop=1;jettySize=auto;html=1;exitX=1;exitY=0.5;exitDx=0;exitDy=0;fontFamily=Times New Roman;fontSize=14;" edge="1" parent="8w9-IXUI6j-jav2uio0l-1" source="k_tpril-N9oekNN_Ta6l-70" target="k_tpril-N9oekNN_Ta6l-91">
          <mxGeometry relative="1" as="geometry">
            <Array as="points">
              <mxPoint x="420" y="690" />
              <mxPoint x="420" y="720" />
            </Array>
          </mxGeometry>
        </mxCell>
        <mxCell id="k_tpril-N9oekNN_Ta6l-113" style="edgeStyle=orthogonalEdgeStyle;rounded=0;orthogonalLoop=1;jettySize=auto;html=1;exitX=1;exitY=0.5;exitDx=0;exitDy=0;fontFamily=Times New Roman;fontSize=14;" edge="1" parent="8w9-IXUI6j-jav2uio0l-1" source="k_tpril-N9oekNN_Ta6l-59" target="k_tpril-N9oekNN_Ta6l-61">
          <mxGeometry relative="1" as="geometry">
            <Array as="points">
              <mxPoint x="330" y="510" />
              <mxPoint x="330" y="550" />
              <mxPoint x="275" y="550" />
            </Array>
          </mxGeometry>
        </mxCell>
        <mxCell id="k_tpril-N9oekNN_Ta6l-114" style="edgeStyle=orthogonalEdgeStyle;rounded=0;orthogonalLoop=1;jettySize=auto;html=1;exitX=1;exitY=0.5;exitDx=0;exitDy=0;entryX=0.009;entryY=-0.133;entryDx=0;entryDy=0;fontFamily=Times New Roman;fontSize=14;entryPerimeter=0;" edge="1" parent="8w9-IXUI6j-jav2uio0l-1" source="k_tpril-N9oekNN_Ta6l-69" target="k_tpril-N9oekNN_Ta6l-77">
          <mxGeometry relative="1" as="geometry" />
        </mxCell>
        <mxCell id="k_tpril-N9oekNN_Ta6l-115" style="edgeStyle=orthogonalEdgeStyle;rounded=0;orthogonalLoop=1;jettySize=auto;html=1;exitX=1;exitY=0.5;exitDx=0;exitDy=0;fontFamily=Times New Roman;fontSize=14;" edge="1" parent="8w9-IXUI6j-jav2uio0l-1" source="k_tpril-N9oekNN_Ta6l-95" target="k_tpril-N9oekNN_Ta6l-85">
          <mxGeometry relative="1" as="geometry">
            <Array as="points">
              <mxPoint x="518" y="790" />
              <mxPoint x="518" y="780" />
            </Array>
          </mxGeometry>
        </mxCell>
        <mxCell id="k_tpril-N9oekNN_Ta6l-116" style="edgeStyle=orthogonalEdgeStyle;rounded=0;orthogonalLoop=1;jettySize=auto;html=1;exitX=1;exitY=0.5;exitDx=0;exitDy=0;fontFamily=Times New Roman;fontSize=14;" edge="1" parent="8w9-IXUI6j-jav2uio0l-1" source="k_tpril-N9oekNN_Ta6l-109" target="k_tpril-N9oekNN_Ta6l-85">
          <mxGeometry relative="1" as="geometry">
            <Array as="points">
              <mxPoint x="640" y="565" />
              <mxPoint x="640" y="780" />
            </Array>
          </mxGeometry>
        </mxCell>
        <mxCell id="k_tpril-N9oekNN_Ta6l-117" style="edgeStyle=orthogonalEdgeStyle;rounded=0;orthogonalLoop=1;jettySize=auto;html=1;exitX=1;exitY=0.5;exitDx=0;exitDy=0;entryX=0;entryY=0.5;entryDx=0;entryDy=0;fontFamily=Times New Roman;fontSize=14;" edge="1" parent="8w9-IXUI6j-jav2uio0l-1" source="k_tpril-N9oekNN_Ta6l-77" target="k_tpril-N9oekNN_Ta6l-108">
          <mxGeometry relative="1" as="geometry">
            <Array as="points">
              <mxPoint x="540" y="620" />
              <mxPoint x="540" y="545" />
            </Array>
          </mxGeometry>
        </mxCell>
        <mxCell id="k_tpril-N9oekNN_Ta6l-118" style="edgeStyle=orthogonalEdgeStyle;rounded=0;orthogonalLoop=1;jettySize=auto;html=1;exitX=1;exitY=0.5;exitDx=0;exitDy=0;entryX=0;entryY=0.25;entryDx=0;entryDy=0;fontFamily=Times New Roman;fontSize=14;" edge="1" parent="8w9-IXUI6j-jav2uio0l-1" source="k_tpril-N9oekNN_Ta6l-78" target="k_tpril-N9oekNN_Ta6l-79">
          <mxGeometry relative="1" as="geometry">
            <Array as="points">
              <mxPoint x="540" y="640" />
              <mxPoint x="540" y="658" />
            </Array>
          </mxGeometry>
        </mxCell>
        <mxCell id="k_tpril-N9oekNN_Ta6l-119" style="edgeStyle=orthogonalEdgeStyle;rounded=0;orthogonalLoop=1;jettySize=auto;html=1;exitX=1;exitY=0.5;exitDx=0;exitDy=0;" edge="1" parent="8w9-IXUI6j-jav2uio0l-1" source="k_tpril-N9oekNN_Ta6l-58" target="k_tpril-N9oekNN_Ta6l-100">
          <mxGeometry relative="1" as="geometry">
            <Array as="points">
              <mxPoint x="332" y="490" />
              <mxPoint x="332" y="470" />
            </Array>
          </mxGeometry>
        </mxCell>
        <mxCell id="k_tpril-N9oekNN_Ta6l-120" style="edgeStyle=orthogonalEdgeStyle;rounded=0;orthogonalLoop=1;jettySize=auto;html=1;exitX=1;exitY=0.5;exitDx=0;exitDy=0;entryX=0.99;entryY=-0.017;entryDx=0;entryDy=0;entryPerimeter=0;" edge="1" parent="8w9-IXUI6j-jav2uio0l-1" source="k_tpril-N9oekNN_Ta6l-82" target="k_tpril-N9oekNN_Ta6l-85">
          <mxGeometry relative="1" as="geometry">
            <Array as="points">
              <mxPoint x="640" y="710" />
              <mxPoint x="640" y="780" />
              <mxPoint x="609" y="780" />
            </Array>
          </mxGeometry>
        </mxCell>
        <mxCell id="k_tpril-N9oekNN_Ta6l-122" style="edgeStyle=orthogonalEdgeStyle;rounded=0;orthogonalLoop=1;jettySize=auto;html=1;exitX=1;exitY=0.5;exitDx=0;exitDy=0;entryX=0;entryY=0.5;entryDx=0;entryDy=0;" edge="1" parent="8w9-IXUI6j-jav2uio0l-1" source="k_tpril-N9oekNN_Ta6l-19" target="k_tpril-N9oekNN_Ta6l-121">
          <mxGeometry relative="1" as="geometry">
            <Array as="points">
              <mxPoint x="210" y="765" />
              <mxPoint x="210" y="710" />
            </Array>
          </mxGeometry>
        </mxCell>
        <mxCell id="k_tpril-N9oekNN_Ta6l-123" style="edgeStyle=orthogonalEdgeStyle;rounded=0;orthogonalLoop=1;jettySize=auto;html=1;exitX=1;exitY=0.5;exitDx=0;exitDy=0;entryX=0;entryY=0.5;entryDx=0;entryDy=0;" edge="1" parent="8w9-IXUI6j-jav2uio0l-1" source="k_tpril-N9oekNN_Ta6l-12" target="k_tpril-N9oekNN_Ta6l-66">
          <mxGeometry relative="1" as="geometry">
            <Array as="points">
              <mxPoint x="210" y="595" />
              <mxPoint x="210" y="690" />
            </Array>
          </mxGeometry>
        </mxCell>
      </root>
    </mxGraphModel>
  </diagram>
</mxfile>
